;Layer: Drill PTH
;EasyEDA v6.4.5, 2020-09-09T10:55:23+00:00
;9ae0df8139264758ba9d87524d1a2e77,b97ca10cbf7f413284ca0e80e24dcd20,10
;Gerber Generator version 0.2
M48
INCH,LZ,00.0000
;Holesize 1 = 0.028 INCH
T01C0.028
;Holesize 2 = 0.035 INCH
T02C0.035
;Holesize 3 = 0.040 INCH
T03C0.040
;Holesize 4 = 0.043 INCH
T04C0.043
;Holesize 5 = 0.047 INCH
T05C0.047
%
G05
G90
T01
X+012435Y+002850
X+014364Y+002850
X+009400Y+003000
X+010400Y+003000
X+010000Y+001500
X+011000Y+001500
T02
X+014350Y+009450
X+013350Y+009450
X+012350Y+009450
X+011350Y+009450
X+010350Y+009450
X+009350Y+009450
X+008350Y+009450
X+007350Y+009450
X+006350Y+009450
X+005350Y+009450
X+004350Y+009450
X+003350Y+009450
X+002350Y+009450
T03
X+016450Y+002850
X+016450Y+003850
X+016450Y+004850
X+016450Y+005850
X+016450Y+006850
X+016450Y+007850
T04
X+001800Y+003050
X+002800Y+003050
X+003800Y+003050
X+004800Y+003050
X+001850Y+004800
X+001850Y+007800
X+002850Y+004800
X+002850Y+007800
X+003850Y+004800
X+003850Y+007800
X+004850Y+004800
X+004850Y+007800
X+005850Y+004800
X+005850Y+007800
X+006850Y+004800
X+006850Y+007800
X+007850Y+004800
X+007850Y+007800
X+008850Y+004800
X+008850Y+007800
X+009850Y+004800
X+009850Y+007800
X+010850Y+004800
X+010850Y+007800
X+011850Y+004800
X+011850Y+007800
X+012850Y+004800
X+012850Y+007800
X+013850Y+004800
X+013850Y+007800
X+014850Y+004800
X+014850Y+007800
T05
X+005950Y+003050
X+006950Y+003050
X+007950Y+003050
M30
