G04 Layer: TopLayer*
G04 EasyEDA v6.4.5, 2020-09-09T10:55:23+00:00*
G04 9ae0df8139264758ba9d87524d1a2e77,b97ca10cbf7f413284ca0e80e24dcd20,10*
G04 Gerber Generator version 0.2*
G04 Scale: 100 percent, Rotated: No, Reflected: No *
G04 Dimensions in inches *
G04 leading zeros omitted , absolute positions ,2 integer and 4 decimal *
%FSLAX24Y24*%
%MOIN*%
G90*
G70D02*

%ADD11C,0.012000*%
%ADD12C,0.061000*%
%ADD13R,0.070866X0.061000*%
%ADD14C,0.080000*%
%ADD15R,0.062000X0.062000*%
%ADD16C,0.062000*%
%ADD17C,0.070866*%
%ADD18R,0.062000X0.070866*%
%ADD19C,0.047000*%
%ADD21C,0.066929*%

%LPD*%
G54D11*
G01X10350Y9450D02*
G01X10350Y6700D01*
G01X10400Y6650D01*
G01X15200Y6650D01*
G01X16331Y7782D01*
G01X7350Y9450D02*
G01X7350Y6850D01*
G01X7750Y6450D01*
G01X7750Y4780D01*
G01X6350Y9450D02*
G01X6900Y10000D01*
G01X7700Y10000D01*
G01X7800Y9900D01*
G01X7800Y8700D01*
G01X8050Y8450D01*
G01X8700Y8450D01*
G01X9350Y8438D01*
G01X9350Y8630D01*
G01X9350Y9450D02*
G01X9350Y6500D01*
G01X8750Y5900D01*
G01X8750Y4855D01*
G01X16500Y6850D02*
G01X15750Y6100D01*
G01X15750Y4419D01*
G01X10850Y4800D02*
G01X11700Y3650D01*
G01X13600Y3650D01*
G01X14364Y2885D01*
G01X14364Y2850D01*
G01X16500Y2850D02*
G01X15750Y3600D01*
G01X15750Y4550D01*
G01X16050Y4850D01*
G01X16500Y4850D01*
G01X12435Y2850D02*
G01X12285Y3000D01*
G01X10400Y3000D01*
G01X9850Y4800D02*
G01X10400Y3950D01*
G01X10400Y3000D01*
G01X7850Y4800D02*
G01X6950Y3800D01*
G01X6950Y3230D01*
G01X3850Y7800D02*
G01X6350Y5300D01*
G01X6350Y4100D01*
G01X5950Y3700D01*
G01X5950Y3050D01*
G01X4850Y4800D02*
G01X4650Y4500D01*
G01X4650Y3950D01*
G01X3800Y3100D01*
G01X3800Y3050D01*
G01X2800Y3050D02*
G01X2800Y2350D01*
G01X3500Y1650D01*
G01X7450Y1650D01*
G01X7950Y2150D01*
G01X7950Y3050D01*
G01X1800Y3150D02*
G01X1900Y3050D01*
G01X1900Y2000D01*
G01X3200Y700D01*
G01X15100Y700D01*
G01X17150Y2750D01*
G01X17150Y4623D01*
G01X2350Y9450D02*
G01X2100Y9450D01*
G01X650Y8000D01*
G01X650Y6850D01*
G01X2750Y4750D01*
G01X2850Y4800D01*
G01X3350Y9450D02*
G01X2800Y8900D01*
G01X2050Y8900D01*
G01X950Y7800D01*
G01X950Y7200D01*
G01X2000Y6150D01*
G01X2200Y6150D01*
G01X3850Y4800D01*
G01X5850Y4800D02*
G01X4800Y3650D01*
G01X4800Y3050D01*
G01X4350Y9450D02*
G01X4350Y9100D01*
G01X3850Y8600D01*
G01X2750Y8600D01*
G01X1850Y7800D01*
G01X5350Y9450D02*
G01X4200Y8300D01*
G01X3000Y8300D01*
G01X2750Y8050D01*
G01X2850Y7800D01*
G01X16500Y7850D02*
G01X17150Y7200D01*
G01X17150Y5379D01*
G01X15750Y5587D02*
G01X9737Y5587D01*
G01X8750Y4600D01*
G01X6950Y3050D02*
G01X6200Y2300D01*
G01X3550Y2300D01*
G01X3300Y2550D01*
G01X3300Y3450D01*
G01X3050Y3700D01*
G01X1950Y3700D01*
G01X1800Y3550D01*
G01X1800Y3050D01*
G01X14350Y9450D02*
G01X14750Y9050D01*
G01X14750Y7600D01*
G01X13350Y9450D02*
G01X13750Y9050D01*
G01X13750Y7600D01*
G01X12350Y9450D02*
G01X12750Y9050D01*
G01X12750Y7600D01*
G01X14364Y2850D02*
G01X13014Y1500D01*
G01X11000Y1500D01*
G01X11350Y9450D02*
G01X11750Y9050D01*
G01X11750Y7600D01*
G01X8350Y9450D02*
G01X8900Y10000D01*
G01X10550Y10000D01*
G01X10850Y9700D01*
G01X10850Y7700D01*
G01X10750Y7600D01*
G01X10000Y1500D02*
G01X9400Y2100D01*
G01X9400Y3000D01*
G01X9400Y3000D02*
G01X8750Y3650D01*
G01X8750Y4419D01*
G01X9400Y2923D02*
G01X9272Y3050D01*
G01X8131Y3050D01*
G01X10000Y1500D02*
G01X10500Y1000D01*
G01X14600Y1000D01*
G01X16347Y2746D01*
G01X16500Y3850D02*
G01X17150Y4500D01*
G01X17150Y5650D01*
G01X16950Y5850D01*
G01X16500Y5850D01*
G54D12*
G01X16450Y2850D03*
G01X16450Y3850D03*
G01X16450Y4850D03*
G01X16450Y5850D03*
G01X16450Y6850D03*
G54D13*
G01X16450Y7850D03*
G54D14*
G01X12435Y2850D03*
G01X14364Y2850D03*
G54D15*
G01X14350Y9450D03*
G54D16*
G01X13350Y9450D03*
G01X12350Y9450D03*
G01X11350Y9450D03*
G01X10350Y9450D03*
G01X9350Y9450D03*
G01X8350Y9450D03*
G01X7350Y9450D03*
G01X6350Y9450D03*
G01X5350Y9450D03*
G01X4350Y9450D03*
G01X3350Y9450D03*
G01X2350Y9450D03*
G54D17*
G01X5950Y3050D03*
G01X6950Y3050D03*
G54D18*
G01X7950Y3050D03*
G54D19*
G01X9400Y3000D03*
G01X10400Y3000D03*
G01X10000Y1500D03*
G01X11000Y1500D03*
G36*
G01X1465Y3384D02*
G01X2134Y3384D01*
G01X2134Y2715D01*
G01X1465Y2715D01*
G01X1465Y3384D01*
G37*
G54D21*
G01X2800Y3050D03*
G01X3800Y3050D03*
G01X4800Y3050D03*
G54D17*
G01X1850Y4800D03*
G01X1850Y7800D03*
G01X2850Y4800D03*
G01X2850Y7800D03*
G01X3850Y4800D03*
G01X3850Y7800D03*
G01X4850Y4800D03*
G01X4850Y7800D03*
G01X5850Y4800D03*
G01X5850Y7800D03*
G01X6850Y4800D03*
G01X6850Y7800D03*
G01X7850Y4800D03*
G01X7850Y7800D03*
G01X8850Y4800D03*
G01X8850Y7800D03*
G01X9850Y4800D03*
G01X9850Y7800D03*
G01X10850Y4800D03*
G01X10850Y7800D03*
G01X11850Y4800D03*
G01X11850Y7800D03*
G01X12850Y4800D03*
G01X12850Y7800D03*
G01X13850Y4800D03*
G01X13850Y7800D03*
G01X14850Y4800D03*
G01X14850Y7800D03*
M00*
M02*
