G04 Layer: TopSilkLayer*
G04 EasyEDA v6.4.5, 2020-09-09T10:55:23+00:00*
G04 d09f7638d68c4a4883d6ef385ab6acfa,b97ca10cbf7f413284ca0e80e24dcd20,10*
G04 Gerber Generator version 0.2*
G04 Scale: 100 percent, Rotated: No, Reflected: No *
G04 Dimensions in inches *
G04 leading zeros omitted , absolute positions ,2 integer and 4 decimal *
%FSLAX24Y24*%
%MOIN*%
G90*
G70D02*

%ADD10C,0.010000*%
%ADD15C,0.006000*%

%LPD*%
G54D10*
G01X212Y5242D02*
G01X212Y6109D01*
G01X6977Y3590D02*
G01X7322Y3590D01*
G01X5977Y3590D02*
G01X6322Y3590D01*
G01X4977Y3590D02*
G01X5322Y3590D01*
G01X3977Y3590D02*
G01X4322Y3590D01*
G01X2977Y3590D02*
G01X3322Y3590D01*
G01X1977Y3590D02*
G01X2322Y3590D01*
G01X977Y3590D02*
G01X1322Y3590D01*
G01X212Y3590D02*
G01X322Y3590D01*
G01X7976Y6109D02*
G01X8087Y6109D01*
G01X6976Y6109D02*
G01X7323Y6109D01*
G01X5976Y6109D02*
G01X6323Y6109D01*
G01X4976Y6109D02*
G01X5323Y6109D01*
G01X3976Y6109D02*
G01X4323Y6109D01*
G01X2976Y6109D02*
G01X3323Y6109D01*
G01X1976Y6109D02*
G01X2323Y6109D01*
G01X976Y6109D02*
G01X1323Y6109D01*
G01X212Y6109D02*
G01X323Y6109D01*
G01X212Y3590D02*
G01X212Y4456D01*
G01X8087Y3590D02*
G01X8087Y6109D01*
G01X7977Y3590D02*
G01X8087Y3590D01*
G01X6872Y9089D02*
G01X4550Y9089D01*
G01X4550Y8066D01*
G01X5298Y9089D02*
G01X6912Y9089D01*
G01X6912Y8105D01*
G01X4746Y8066D02*
G01X4746Y8853D01*
G01X6715Y8853D01*
G01X6715Y8105D01*
G01X5731Y7436D02*
G01X5731Y7200D01*
G01X4550Y7672D02*
G01X4746Y7672D01*
G01X4550Y8066D02*
G01X4746Y8066D01*
G01X6715Y7711D02*
G01X6912Y7711D01*
G01X4746Y7672D02*
G01X4746Y7200D01*
G01X5140Y7200D02*
G01X5140Y7436D01*
G01X6321Y7200D02*
G01X6321Y7436D01*
G01X5140Y7436D02*
G01X5731Y7436D01*
G01X5140Y7200D02*
G01X5731Y7200D01*
G01X6321Y7436D02*
G01X5731Y7436D01*
G01X5731Y7200D01*
G01X6321Y7200D02*
G01X5731Y7200D01*
G01X6715Y7711D02*
G01X6715Y7200D01*
G01X6912Y7200D01*
G01X6912Y7711D01*
G01X4550Y7672D02*
G01X4550Y7200D01*
G01X4746Y7200D01*
G01X5731Y7200D02*
G01X6518Y7200D01*
G01X5140Y7200D02*
G01X4746Y7200D01*
G01X5140Y7436D02*
G01X4746Y7436D01*
G01X4746Y7672D02*
G01X4746Y8066D01*
G01X4550Y8066D02*
G01X4550Y7672D01*
G01X6321Y7436D02*
G01X6715Y7436D01*
G01X6321Y7200D02*
G01X6715Y7200D01*
G01X6715Y7711D02*
G01X6715Y8105D01*
G01X6912Y8105D02*
G01X6912Y7711D01*
G01X6715Y8144D02*
G01X6912Y8144D01*
G01X3272Y9039D02*
G01X950Y9039D01*
G01X950Y8016D01*
G01X1698Y9039D02*
G01X3312Y9039D01*
G01X3312Y8055D01*
G01X1146Y8016D02*
G01X1146Y8803D01*
G01X3115Y8803D01*
G01X3115Y8055D01*
G01X2131Y7386D02*
G01X2131Y7150D01*
G01X950Y7622D02*
G01X1146Y7622D01*
G01X950Y8016D02*
G01X1146Y8016D01*
G01X3115Y7661D02*
G01X3312Y7661D01*
G01X1146Y7622D02*
G01X1146Y7150D01*
G01X1540Y7150D02*
G01X1540Y7386D01*
G01X2721Y7150D02*
G01X2721Y7386D01*
G01X1540Y7386D02*
G01X2131Y7386D01*
G01X1540Y7150D02*
G01X2131Y7150D01*
G01X2721Y7386D02*
G01X2131Y7386D01*
G01X2131Y7150D01*
G01X2721Y7150D02*
G01X2131Y7150D01*
G01X3115Y7661D02*
G01X3115Y7150D01*
G01X3312Y7150D01*
G01X3312Y7661D01*
G01X950Y7622D02*
G01X950Y7150D01*
G01X1146Y7150D01*
G01X2131Y7150D02*
G01X2918Y7150D01*
G01X1540Y7150D02*
G01X1146Y7150D01*
G01X1540Y7386D02*
G01X1146Y7386D01*
G01X1146Y7622D02*
G01X1146Y8016D01*
G01X950Y8016D02*
G01X950Y7622D01*
G01X2721Y7386D02*
G01X3115Y7386D01*
G01X2721Y7150D02*
G01X3115Y7150D01*
G01X3115Y7661D02*
G01X3115Y8055D01*
G01X3312Y8055D02*
G01X3312Y7661D01*
G01X3115Y8094D02*
G01X3312Y8094D01*
G01X4827Y460D02*
G01X7150Y460D01*
G01X7150Y1483D01*
G01X6401Y460D02*
G01X4787Y460D01*
G01X4787Y1444D01*
G01X6953Y1483D02*
G01X6953Y696D01*
G01X4984Y696D01*
G01X4984Y1444D01*
G01X5968Y2113D02*
G01X5968Y2350D01*
G01X7150Y1877D02*
G01X6953Y1877D01*
G01X7150Y1483D02*
G01X6953Y1483D01*
G01X4984Y1838D02*
G01X4787Y1838D01*
G01X6953Y1877D02*
G01X6953Y2350D01*
G01X6559Y2350D02*
G01X6559Y2113D01*
G01X5378Y2350D02*
G01X5378Y2113D01*
G01X6559Y2113D02*
G01X5968Y2113D01*
G01X6559Y2350D02*
G01X5968Y2350D01*
G01X5378Y2113D02*
G01X5968Y2113D01*
G01X5968Y2350D01*
G01X5378Y2350D02*
G01X5968Y2350D01*
G01X4984Y1838D02*
G01X4984Y2350D01*
G01X4787Y2350D01*
G01X4787Y1838D01*
G01X7150Y1877D02*
G01X7150Y2350D01*
G01X6953Y2350D01*
G01X5968Y2350D02*
G01X5181Y2350D01*
G01X6559Y2350D02*
G01X6953Y2350D01*
G01X6559Y2113D02*
G01X6953Y2113D01*
G01X6953Y1877D02*
G01X6953Y1483D01*
G01X7150Y1483D02*
G01X7150Y1877D01*
G01X5378Y2113D02*
G01X4984Y2113D01*
G01X5378Y2350D02*
G01X4984Y2350D01*
G01X4984Y1838D02*
G01X4984Y1444D01*
G01X4787Y1444D02*
G01X4787Y1838D01*
G01X4984Y1405D02*
G01X4787Y1405D01*
G01X1127Y610D02*
G01X3450Y610D01*
G01X3450Y1633D01*
G01X2701Y610D02*
G01X1087Y610D01*
G01X1087Y1594D01*
G01X3253Y1633D02*
G01X3253Y846D01*
G01X1284Y846D01*
G01X1284Y1594D01*
G01X2268Y2263D02*
G01X2268Y2500D01*
G01X3450Y2027D02*
G01X3253Y2027D01*
G01X3450Y1633D02*
G01X3253Y1633D01*
G01X1284Y1988D02*
G01X1087Y1988D01*
G01X3253Y2027D02*
G01X3253Y2500D01*
G01X2859Y2500D02*
G01X2859Y2263D01*
G01X1678Y2500D02*
G01X1678Y2263D01*
G01X2859Y2263D02*
G01X2268Y2263D01*
G01X2859Y2500D02*
G01X2268Y2500D01*
G01X1678Y2263D02*
G01X2268Y2263D01*
G01X2268Y2500D01*
G01X1678Y2500D02*
G01X2268Y2500D01*
G01X1284Y1988D02*
G01X1284Y2500D01*
G01X1087Y2500D01*
G01X1087Y1988D01*
G01X3450Y2027D02*
G01X3450Y2500D01*
G01X3253Y2500D01*
G01X2268Y2500D02*
G01X1481Y2500D01*
G01X2859Y2500D02*
G01X3253Y2500D01*
G01X2859Y2263D02*
G01X3253Y2263D01*
G01X3253Y2027D02*
G01X3253Y1633D01*
G01X3450Y1633D02*
G01X3450Y2027D01*
G01X1678Y2263D02*
G01X1284Y2263D01*
G01X1678Y2500D02*
G01X1284Y2500D01*
G01X1284Y1988D02*
G01X1284Y1594D01*
G01X1087Y1594D02*
G01X1087Y1988D01*
G01X1284Y1555D02*
G01X1087Y1555D01*
G01X8460Y6022D02*
G01X8460Y3700D01*
G01X9483Y3700D01*
G01X8460Y4448D02*
G01X8460Y6062D01*
G01X9444Y6062D01*
G01X9483Y3896D02*
G01X8696Y3896D01*
G01X8696Y5865D01*
G01X9444Y5865D01*
G01X10113Y4881D02*
G01X10350Y4881D01*
G01X9877Y3700D02*
G01X9877Y3896D01*
G01X9483Y3700D02*
G01X9483Y3896D01*
G01X9838Y5865D02*
G01X9838Y6062D01*
G01X9877Y3896D02*
G01X10350Y3896D01*
G01X10350Y4290D02*
G01X10113Y4290D01*
G01X10350Y5471D02*
G01X10113Y5471D01*
G01X10113Y4290D02*
G01X10113Y4881D01*
G01X10350Y4290D02*
G01X10350Y4881D01*
G01X10113Y5471D02*
G01X10113Y4881D01*
G01X10350Y4881D01*
G01X10350Y5471D02*
G01X10350Y4881D01*
G01X9838Y5865D02*
G01X10350Y5865D01*
G01X10350Y6062D01*
G01X9838Y6062D01*
G01X9877Y3700D02*
G01X10350Y3700D01*
G01X10350Y3896D01*
G01X10350Y4881D02*
G01X10350Y5668D01*
G01X10350Y4290D02*
G01X10350Y3896D01*
G01X10113Y4290D02*
G01X10113Y3896D01*
G01X9877Y3896D02*
G01X9483Y3896D01*
G01X9483Y3700D02*
G01X9877Y3700D01*
G01X10113Y5471D02*
G01X10113Y5865D01*
G01X10350Y5471D02*
G01X10350Y5865D01*
G01X9838Y5865D02*
G01X9444Y5865D01*
G01X9444Y6062D02*
G01X9838Y6062D01*
G01X9405Y5865D02*
G01X9405Y6062D01*
G54D15*
G01X3550Y4901D02*
G01X3550Y4711D01*
G01X3550Y4711D02*
G01X3659Y4711D01*
G01X3728Y4855D02*
G01X3728Y4865D01*
G01X3736Y4884D01*
G01X3746Y4892D01*
G01X3765Y4901D01*
G01X3801Y4901D01*
G01X3819Y4892D01*
G01X3828Y4884D01*
G01X3836Y4865D01*
G01X3836Y4846D01*
G01X3828Y4828D01*
G01X3809Y4801D01*
G01X3719Y4711D01*
G01X3846Y4711D01*
G01X4025Y4838D02*
G01X4015Y4811D01*
G01X3996Y4792D01*
G01X3969Y4784D01*
G01X3961Y4784D01*
G01X3934Y4792D01*
G01X3915Y4811D01*
G01X3905Y4838D01*
G01X3905Y4846D01*
G01X3915Y4875D01*
G01X3934Y4892D01*
G01X3961Y4901D01*
G01X3969Y4901D01*
G01X3996Y4892D01*
G01X4015Y4875D01*
G01X4025Y4838D01*
G01X4025Y4792D01*
G01X4015Y4746D01*
G01X3996Y4719D01*
G01X3969Y4711D01*
G01X3951Y4711D01*
G01X3925Y4719D01*
G01X3915Y4738D01*
G01X4103Y4901D02*
G01X4203Y4901D01*
G01X4148Y4828D01*
G01X4175Y4828D01*
G01X4194Y4819D01*
G01X4203Y4811D01*
G01X4211Y4784D01*
G01X4211Y4765D01*
G01X4203Y4738D01*
G01X4184Y4719D01*
G01X4157Y4711D01*
G01X4130Y4711D01*
G01X4103Y4719D01*
G01X4094Y4728D01*
G01X4084Y4746D01*
G01X4271Y4901D02*
G01X4271Y4711D01*
G01X4271Y4901D02*
G01X4334Y4901D01*
G01X4363Y4892D01*
G01X4380Y4875D01*
G01X4390Y4855D01*
G01X4398Y4828D01*
G01X4398Y4784D01*
G01X4390Y4755D01*
G01X4380Y4738D01*
G01X4363Y4719D01*
G01X4334Y4711D01*
G01X4271Y4711D01*
G01X4598Y4901D02*
G01X4598Y4711D01*
G01X4794Y4855D02*
G01X4786Y4875D01*
G01X4767Y4892D01*
G01X4750Y4901D01*
G01X4713Y4901D01*
G01X4694Y4892D01*
G01X4676Y4875D01*
G01X4667Y4855D01*
G01X4659Y4828D01*
G01X4659Y4784D01*
G01X4667Y4755D01*
G01X4676Y4738D01*
G01X4694Y4719D01*
G01X4713Y4711D01*
G01X4750Y4711D01*
G01X4767Y4719D01*
G01X4786Y4738D01*
G01X4794Y4755D01*
G01X9175Y4467D02*
G01X9010Y4467D01*
G01X9093Y4550D02*
G01X9093Y4386D01*
G01X9043Y5400D02*
G01X9043Y5236D01*
G01X4150Y7303D02*
G01X4150Y6996D01*
G01X4169Y6936D01*
G01X4211Y6894D01*
G01X4273Y6875D01*
G01X4313Y6875D01*
G01X4375Y6894D01*
G01X4415Y6936D01*
G01X4436Y6996D01*
G01X4436Y7303D01*
G01X4571Y7221D02*
G01X4611Y7242D01*
G01X4673Y7303D01*
G01X4673Y6875D01*
G01X5150Y9401D02*
G01X5150Y9211D01*
G01X5150Y9401D02*
G01X5222Y9211D01*
G01X5294Y9401D02*
G01X5222Y9211D01*
G01X5294Y9401D02*
G01X5294Y9211D01*
G01X5410Y9401D02*
G01X5392Y9392D01*
G01X5373Y9375D01*
G01X5364Y9355D01*
G01X5355Y9328D01*
G01X5355Y9284D01*
G01X5364Y9255D01*
G01X5373Y9238D01*
G01X5392Y9219D01*
G01X5410Y9211D01*
G01X5446Y9211D01*
G01X5464Y9219D01*
G01X5482Y9238D01*
G01X5492Y9255D01*
G01X5501Y9284D01*
G01X5501Y9328D01*
G01X5492Y9355D01*
G01X5482Y9375D01*
G01X5464Y9392D01*
G01X5446Y9401D01*
G01X5410Y9401D01*
G01X5625Y9401D02*
G01X5625Y9211D01*
G01X5560Y9401D02*
G01X5688Y9401D01*
G01X5802Y9401D02*
G01X5785Y9392D01*
G01X5765Y9375D01*
G01X5756Y9355D01*
G01X5747Y9328D01*
G01X5747Y9284D01*
G01X5756Y9255D01*
G01X5765Y9238D01*
G01X5785Y9219D01*
G01X5802Y9211D01*
G01X5839Y9211D01*
G01X5856Y9219D01*
G01X5875Y9238D01*
G01X5885Y9255D01*
G01X5893Y9284D01*
G01X5893Y9328D01*
G01X5885Y9355D01*
G01X5875Y9375D01*
G01X5856Y9392D01*
G01X5839Y9401D01*
G01X5802Y9401D01*
G01X5953Y9401D02*
G01X5953Y9211D01*
G01X5953Y9401D02*
G01X6035Y9401D01*
G01X6063Y9392D01*
G01X6072Y9384D01*
G01X6081Y9365D01*
G01X6081Y9346D01*
G01X6072Y9328D01*
G01X6063Y9319D01*
G01X6035Y9311D01*
G01X5953Y9311D01*
G01X6017Y9311D02*
G01X6081Y9211D01*
G01X6150Y9355D02*
G01X6150Y9365D01*
G01X6159Y9384D01*
G01X6168Y9392D01*
G01X6185Y9401D01*
G01X6222Y9401D01*
G01X6240Y9392D01*
G01X6250Y9384D01*
G01X6259Y9365D01*
G01X6259Y9346D01*
G01X6250Y9328D01*
G01X6231Y9301D01*
G01X6140Y9211D01*
G01X6268Y9211D01*
G01X1700Y9351D02*
G01X1700Y9161D01*
G01X1759Y9351D02*
G01X1759Y9161D01*
G01X1759Y9351D02*
G01X1886Y9161D01*
G01X1886Y9351D02*
G01X1886Y9161D01*
G01X1946Y9351D02*
G01X1946Y9161D01*
G01X1946Y9351D02*
G01X2028Y9351D01*
G01X2055Y9342D01*
G01X2065Y9334D01*
G01X2075Y9315D01*
G01X2075Y9288D01*
G01X2065Y9269D01*
G01X2055Y9261D01*
G01X2028Y9251D01*
G01X1946Y9251D01*
G01X2134Y9351D02*
G01X2134Y9215D01*
G01X2144Y9188D01*
G01X2161Y9169D01*
G01X2188Y9161D01*
G01X2207Y9161D01*
G01X2234Y9169D01*
G01X2253Y9188D01*
G01X2261Y9215D01*
G01X2261Y9351D01*
G01X2384Y9351D02*
G01X2384Y9161D01*
G01X2321Y9351D02*
G01X2448Y9351D01*
G01X2509Y9315D02*
G01X2526Y9325D01*
G01X2555Y9351D01*
G01X2555Y9161D01*
G01X5550Y351D02*
G01X5550Y161D01*
G01X5550Y351D02*
G01X5622Y161D01*
G01X5694Y351D02*
G01X5622Y161D01*
G01X5694Y351D02*
G01X5694Y161D01*
G01X5810Y351D02*
G01X5792Y342D01*
G01X5773Y325D01*
G01X5764Y305D01*
G01X5755Y278D01*
G01X5755Y234D01*
G01X5764Y205D01*
G01X5773Y188D01*
G01X5792Y169D01*
G01X5810Y161D01*
G01X5846Y161D01*
G01X5864Y169D01*
G01X5882Y188D01*
G01X5892Y205D01*
G01X5901Y234D01*
G01X5901Y278D01*
G01X5892Y305D01*
G01X5882Y325D01*
G01X5864Y342D01*
G01X5846Y351D01*
G01X5810Y351D01*
G01X6025Y351D02*
G01X6025Y161D01*
G01X5960Y351D02*
G01X6088Y351D01*
G01X6202Y351D02*
G01X6185Y342D01*
G01X6165Y325D01*
G01X6156Y305D01*
G01X6147Y278D01*
G01X6147Y234D01*
G01X6156Y205D01*
G01X6165Y188D01*
G01X6185Y169D01*
G01X6202Y161D01*
G01X6239Y161D01*
G01X6256Y169D01*
G01X6275Y188D01*
G01X6285Y205D01*
G01X6293Y234D01*
G01X6293Y278D01*
G01X6285Y305D01*
G01X6275Y325D01*
G01X6256Y342D01*
G01X6239Y351D01*
G01X6202Y351D01*
G01X6353Y351D02*
G01X6353Y161D01*
G01X6353Y351D02*
G01X6435Y351D01*
G01X6463Y342D01*
G01X6472Y334D01*
G01X6481Y315D01*
G01X6481Y296D01*
G01X6472Y278D01*
G01X6463Y269D01*
G01X6435Y261D01*
G01X6353Y261D01*
G01X6417Y261D02*
G01X6481Y161D01*
G01X6540Y315D02*
G01X6559Y325D01*
G01X6585Y351D01*
G01X6585Y161D01*
G01X1800Y351D02*
G01X1800Y161D01*
G01X1859Y351D02*
G01X1859Y161D01*
G01X1859Y351D02*
G01X1986Y161D01*
G01X1986Y351D02*
G01X1986Y161D01*
G01X2046Y351D02*
G01X2046Y161D01*
G01X2046Y351D02*
G01X2128Y351D01*
G01X2155Y342D01*
G01X2165Y334D01*
G01X2175Y315D01*
G01X2175Y288D01*
G01X2165Y269D01*
G01X2155Y261D01*
G01X2128Y251D01*
G01X2046Y251D01*
G01X2234Y351D02*
G01X2234Y215D01*
G01X2244Y188D01*
G01X2261Y169D01*
G01X2288Y161D01*
G01X2307Y161D01*
G01X2334Y169D01*
G01X2353Y188D01*
G01X2361Y215D01*
G01X2361Y351D01*
G01X2484Y351D02*
G01X2484Y161D01*
G01X2421Y351D02*
G01X2548Y351D01*
G01X2617Y305D02*
G01X2617Y315D01*
G01X2626Y334D01*
G01X2636Y342D01*
G01X2655Y351D01*
G01X2690Y351D01*
G01X2709Y342D01*
G01X2717Y334D01*
G01X2726Y315D01*
G01X2726Y296D01*
G01X2717Y278D01*
G01X2700Y251D01*
G01X2609Y161D01*
G01X2736Y161D01*
G01X10675Y5273D02*
G01X10693Y5290D01*
G01X10702Y5317D01*
G01X10702Y5355D01*
G01X10693Y5382D01*
G01X10675Y5400D01*
G01X10656Y5400D01*
G01X10638Y5390D01*
G01X10628Y5382D01*
G01X10619Y5363D01*
G01X10602Y5309D01*
G01X10593Y5290D01*
G01X10584Y5282D01*
G01X10564Y5273D01*
G01X10538Y5273D01*
G01X10519Y5290D01*
G01X10510Y5317D01*
G01X10510Y5355D01*
G01X10519Y5382D01*
G01X10538Y5400D01*
G01X10702Y5213D02*
G01X10564Y5213D01*
G01X10538Y5203D01*
G01X10519Y5184D01*
G01X10510Y5157D01*
G01X10510Y5140D01*
G01X10519Y5113D01*
G01X10538Y5094D01*
G01X10564Y5084D01*
G01X10702Y5084D01*
G01X10702Y5025D02*
G01X10510Y5025D01*
G01X10702Y5025D02*
G01X10702Y4944D01*
G01X10693Y4915D01*
G01X10684Y4907D01*
G01X10664Y4898D01*
G01X10638Y4898D01*
G01X10619Y4907D01*
G01X10610Y4915D01*
G01X10602Y4944D01*
G01X10602Y5025D01*
G01X10702Y4838D02*
G01X10510Y4838D01*
G01X10702Y4838D02*
G01X10702Y4755D01*
G01X10693Y4728D01*
G01X10684Y4719D01*
G01X10664Y4711D01*
G01X10638Y4711D01*
G01X10619Y4719D01*
G01X10610Y4728D01*
G01X10602Y4755D01*
G01X10602Y4838D01*
G01X10702Y4651D02*
G01X10510Y4651D01*
G01X10510Y4651D02*
G01X10510Y4542D01*
G01X10702Y4482D02*
G01X10610Y4409D01*
G01X10510Y4409D01*
G01X10702Y4336D02*
G01X10610Y4409D01*
G01X10664Y4276D02*
G01X10675Y4257D01*
G01X10702Y4230D01*
G01X10510Y4230D01*
G54D10*
G75*
G01X213Y5244D02*
G02X233Y4456I10J-394D01*
G01*
G75*
G01X784Y3984D02*
G03X784Y3984I-118J0D01*
G01*
M00*
M02*
