;Layer: Drill PTH
;EasyEDA v6.4.5, 2020-09-09T10:55:23+00:00
;d09f7638d68c4a4883d6ef385ab6acfa,b97ca10cbf7f413284ca0e80e24dcd20,10
;Gerber Generator version 0.2
M48
INCH,LZ,00.0000
;Holesize 1 = 0.032 INCH
T01C0.032
;Holesize 2 = 0.039 INCH
T02C0.039
%
G05
G90
T01
X+005343Y+007909
X+006124Y+007908
X+001744Y+007859
X+002524Y+007858
X+006356Y+001640
X+005575Y+001641
X+002655Y+001790
X+001875Y+001791
X+009640Y+004494
X+009641Y+005274
T02
X+000650Y+003350
X+001650Y+003350
X+002650Y+003350
X+003650Y+003350
X+004650Y+003350
X+005650Y+003350
X+006650Y+003350
X+007650Y+003350
X+007650Y+006350
X+006650Y+006350
X+005650Y+006350
X+004650Y+006350
X+003650Y+006350
X+002650Y+006350
X+001650Y+006350
X+000650Y+006350
M30
