G04 Layer: TopLayer*
G04 EasyEDA v6.4.5, 2020-09-09T10:55:23+00:00*
G04 d09f7638d68c4a4883d6ef385ab6acfa,b97ca10cbf7f413284ca0e80e24dcd20,10*
G04 Gerber Generator version 0.2*
G04 Scale: 100 percent, Rotated: No, Reflected: No *
G04 Dimensions in inches *
G04 leading zeros omitted , absolute positions ,2 integer and 4 decimal *
%FSLAX24Y24*%
%MOIN*%
G90*
G70D02*

%ADD11C,0.015000*%
%ADD12C,0.062992*%
%ADD13R,0.062992X0.066000*%
%ADD14R,0.066000X0.062992*%

%LPD*%
G54D11*
G01X4650Y6350D02*
G01X5725Y5274D01*
G01X9641Y5274D01*
G01X7650Y6350D02*
G01X9700Y6350D01*
G01X10350Y5700D01*
G01X10350Y4950D01*
G01X9893Y4493D01*
G01X9641Y4493D01*
G01X7650Y3350D02*
G01X8497Y3350D01*
G01X9641Y4493D01*
G01X3650Y3350D02*
G01X4650Y3350D01*
G01X3650Y6350D02*
G01X4650Y6350D01*
G01X3650Y6350D02*
G01X3650Y3350D01*
G01X650Y3350D02*
G01X650Y1800D01*
G01X1950Y500D01*
G01X6900Y500D01*
G01X7950Y1550D01*
G01X7950Y3050D01*
G01X7650Y3350D01*
G01X5650Y3350D02*
G01X5575Y3275D01*
G01X5575Y1641D01*
G01X6356Y1640D02*
G01X6356Y1456D01*
G01X5950Y1050D01*
G01X4200Y1050D01*
G01X3250Y2000D01*
G01X3250Y2750D01*
G01X2650Y3350D01*
G01X1875Y1791D02*
G01X2866Y800D01*
G01X6500Y800D01*
G01X7050Y1350D01*
G01X7050Y2950D01*
G01X6650Y3350D01*
G01X1650Y3350D02*
G01X2656Y2343D01*
G01X2656Y1790D01*
G01X650Y6350D02*
G01X650Y3350D01*
G01X6124Y7908D02*
G01X6124Y6824D01*
G01X5650Y6350D01*
G01X2524Y7858D02*
G01X2524Y8124D01*
G01X3000Y8600D01*
G01X6900Y8600D01*
G01X7250Y8250D01*
G01X7250Y6950D01*
G01X6650Y6350D01*
G01X5343Y7909D02*
G01X4209Y7909D01*
G01X2650Y6350D01*
G01X1743Y7859D02*
G01X1743Y6443D01*
G01X1650Y6350D01*
G54D12*
G01X650Y3350D03*
G01X1650Y3350D03*
G01X2650Y3350D03*
G01X3650Y3350D03*
G01X4650Y3350D03*
G01X5650Y3350D03*
G01X6650Y3350D03*
G01X7650Y3350D03*
G01X7650Y6350D03*
G01X6650Y6350D03*
G01X5650Y6350D03*
G01X4650Y6350D03*
G01X3650Y6350D03*
G01X2650Y6350D03*
G01X1650Y6350D03*
G01X650Y6350D03*
G01X5343Y7909D03*
G36*
G01X5809Y8238D02*
G01X6439Y8238D01*
G01X6439Y7578D01*
G01X5809Y7578D01*
G01X5809Y8238D01*
G37*
G01X1744Y7859D03*
G36*
G01X2209Y8188D02*
G01X2839Y8188D01*
G01X2839Y7528D01*
G01X2209Y7528D01*
G01X2209Y8188D01*
G37*
G01X6356Y1640D03*
G54D13*
G01X5575Y1641D03*
G54D12*
G01X2655Y1790D03*
G54D13*
G01X1875Y1791D03*
G54D12*
G01X9640Y4494D03*
G54D14*
G01X9641Y5274D03*
M00*
M02*
