G04 Layer: BottomSolderMaskLayer*
G04 EasyEDA v6.4.5, 2020-09-09T10:55:23+00:00*
G04 d09f7638d68c4a4883d6ef385ab6acfa,b97ca10cbf7f413284ca0e80e24dcd20,10*
G04 Gerber Generator version 0.2*
G04 Scale: 100 percent, Rotated: No, Reflected: No *
G04 Dimensions in inches *
G04 leading zeros omitted , absolute positions ,2 integer and 4 decimal *
%FSLAX24Y24*%
%MOIN*%
G90*
G70D02*

%ADD16C,0.070992*%

%LPD*%
G54D16*
G01X650Y3350D03*
G01X1650Y3350D03*
G01X2650Y3350D03*
G01X3650Y3350D03*
G01X4650Y3350D03*
G01X5650Y3350D03*
G01X6650Y3350D03*
G01X7650Y3350D03*
G01X7650Y6350D03*
G01X6650Y6350D03*
G01X5650Y6350D03*
G01X4650Y6350D03*
G01X3650Y6350D03*
G01X2650Y6350D03*
G01X1650Y6350D03*
G01X650Y6350D03*
G01X5343Y7909D03*
G36*
G01X5769Y7538D02*
G01X5769Y8278D01*
G01X6480Y8278D01*
G01X6480Y7538D01*
G01X5769Y7538D01*
G37*
G01X1744Y7859D03*
G36*
G01X2169Y7488D02*
G01X2169Y8228D01*
G01X2880Y8228D01*
G01X2880Y7488D01*
G01X2169Y7488D01*
G37*
G01X6356Y1640D03*
G36*
G01X5219Y1271D02*
G01X5219Y2011D01*
G01X5930Y2011D01*
G01X5930Y1271D01*
G01X5219Y1271D01*
G37*
G01X2655Y1790D03*
G36*
G01X1519Y1421D02*
G01X1519Y2161D01*
G01X2230Y2161D01*
G01X2230Y1421D01*
G01X1519Y1421D01*
G37*
G01X9640Y4494D03*
G36*
G01X9272Y4919D02*
G01X9272Y5630D01*
G01X10011Y5630D01*
G01X10011Y4919D01*
G01X9272Y4919D01*
G37*
M00*
M02*
