G04 Layer: BottomLayer*
G04 EasyEDA v6.4.5, 2020-09-09T10:55:23+00:00*
G04 8b858644916349d4974128f92eca4aae,b97ca10cbf7f413284ca0e80e24dcd20,10*
G04 Gerber Generator version 0.2*
G04 Scale: 100 percent, Rotated: No, Reflected: No *
G04 Dimensions in inches *
G04 leading zeros omitted , absolute positions ,2 integer and 4 decimal *
%FSLAX24Y24*%
%MOIN*%
G90*
G70D02*

%ADD12C,0.062008*%
%ADD13C,0.062992*%
%ADD14R,0.062992X0.066000*%

%LPD*%
G54D12*
G01X907Y21670D03*
G01X907Y20670D03*
G01X907Y19670D03*
G01X907Y18670D03*
G01X907Y17670D03*
G01X907Y16670D03*
G01X907Y15670D03*
G01X907Y14670D03*
G01X907Y13670D03*
G01X907Y12670D03*
G01X907Y11670D03*
G01X907Y10670D03*
G01X7907Y10670D03*
G01X7907Y11670D03*
G01X7907Y12670D03*
G01X7907Y13670D03*
G01X7907Y14670D03*
G01X7907Y15670D03*
G01X7907Y16670D03*
G01X7907Y17670D03*
G01X7907Y18670D03*
G01X7907Y19670D03*
G01X7907Y20670D03*
G01X7907Y21670D03*
G54D13*
G01X2075Y8559D03*
G01X2861Y8559D03*
G36*
G01X3334Y8888D02*
G01X3964Y8888D01*
G01X3964Y8228D01*
G01X3334Y8228D01*
G01X3334Y8888D01*
G37*
G01X1286Y8559D03*
G01X2875Y6490D03*
G01X2088Y6490D03*
G54D14*
G01X1300Y6491D03*
G54D13*
G01X3663Y6490D03*
G01X2875Y3940D03*
G01X2088Y3940D03*
G54D14*
G01X1300Y3941D03*
G54D13*
G01X3663Y3940D03*
G01X2875Y1440D03*
G01X2088Y1440D03*
G54D14*
G01X1300Y1441D03*
G54D13*
G01X3663Y1440D03*
M00*
M02*
