G04 Layer: TopSilkLayer*
G04 EasyEDA v6.4.5, 2020-09-09T10:55:23+00:00*
G04 8b858644916349d4974128f92eca4aae,b97ca10cbf7f413284ca0e80e24dcd20,10*
G04 Gerber Generator version 0.2*
G04 Scale: 100 percent, Rotated: No, Reflected: No *
G04 Dimensions in inches *
G04 leading zeros omitted , absolute positions ,2 integer and 4 decimal *
%FSLAX24Y24*%
%MOIN*%
G90*
G70D02*

%ADD10C,0.010000*%
%ADD15C,0.006000*%
%ADD16C,0.003200*%

%LPD*%
G54D10*
G01X8431Y22221D02*
G01X8431Y10221D01*
G01X8431Y10221D02*
G01X407Y10221D01*
G01X407Y22221D01*
G01X8431Y22221D01*
G01X3610Y9739D02*
G01X500Y9739D01*
G01X500Y8716D01*
G01X3610Y9739D02*
G01X4436Y9739D01*
G01X4436Y8755D01*
G01X696Y8716D02*
G01X696Y9503D01*
G01X4240Y9503D01*
G01X4240Y8755D01*
G01X1681Y8086D02*
G01X1681Y7850D01*
G01X500Y8322D02*
G01X696Y8322D01*
G01X500Y8716D02*
G01X696Y8716D01*
G01X4240Y8361D02*
G01X4436Y8361D01*
G01X696Y8322D02*
G01X696Y7850D01*
G01X1090Y7850D02*
G01X1090Y8086D01*
G01X3846Y7850D02*
G01X3846Y8086D01*
G01X1090Y8086D02*
G01X1681Y8086D01*
G01X1090Y7850D02*
G01X1681Y7850D01*
G01X3846Y8086D02*
G01X3255Y8086D01*
G01X3255Y7850D01*
G01X3846Y7850D02*
G01X3255Y7850D01*
G01X4240Y8361D02*
G01X4240Y7850D01*
G01X4436Y7850D01*
G01X4436Y8361D01*
G01X500Y8322D02*
G01X500Y7850D01*
G01X696Y7850D01*
G01X1681Y7850D02*
G01X3255Y7850D01*
G01X1090Y7850D02*
G01X696Y7850D01*
G01X1090Y8086D02*
G01X696Y8086D01*
G01X696Y8322D02*
G01X696Y8755D01*
G01X500Y8716D02*
G01X500Y8322D01*
G01X3846Y8086D02*
G01X4240Y8086D01*
G01X3846Y7850D02*
G01X4240Y7850D01*
G01X4240Y8361D02*
G01X4240Y8755D01*
G01X4436Y8755D02*
G01X4436Y8361D01*
G01X4240Y8794D02*
G01X4436Y8794D01*
G01X1339Y5310D02*
G01X4450Y5310D01*
G01X4450Y6333D01*
G01X1339Y5310D02*
G01X513Y5310D01*
G01X513Y6294D01*
G01X4253Y6333D02*
G01X4253Y5546D01*
G01X709Y5546D01*
G01X709Y6294D01*
G01X3268Y6963D02*
G01X3268Y7200D01*
G01X4450Y6727D02*
G01X4253Y6727D01*
G01X4450Y6333D02*
G01X4253Y6333D01*
G01X709Y6688D02*
G01X513Y6688D01*
G01X4253Y6727D02*
G01X4253Y7200D01*
G01X3859Y7200D02*
G01X3859Y6963D01*
G01X1103Y7200D02*
G01X1103Y6963D01*
G01X3859Y6963D02*
G01X3268Y6963D01*
G01X3859Y7200D02*
G01X3268Y7200D01*
G01X1103Y6963D02*
G01X1694Y6963D01*
G01X1694Y7200D01*
G01X1103Y7200D02*
G01X1694Y7200D01*
G01X709Y6688D02*
G01X709Y7200D01*
G01X513Y7200D01*
G01X513Y6688D01*
G01X4450Y6727D02*
G01X4450Y7200D01*
G01X4253Y7200D01*
G01X3268Y7200D02*
G01X1694Y7200D01*
G01X3859Y7200D02*
G01X4253Y7200D01*
G01X3859Y6963D02*
G01X4253Y6963D01*
G01X4253Y6727D02*
G01X4253Y6294D01*
G01X4450Y6333D02*
G01X4450Y6727D01*
G01X1103Y6963D02*
G01X709Y6963D01*
G01X1103Y7200D02*
G01X709Y7200D01*
G01X709Y6688D02*
G01X709Y6294D01*
G01X513Y6294D02*
G01X513Y6688D01*
G01X709Y6255D02*
G01X513Y6255D01*
G01X1339Y2760D02*
G01X4450Y2760D01*
G01X4450Y3783D01*
G01X1339Y2760D02*
G01X513Y2760D01*
G01X513Y3744D01*
G01X4253Y3783D02*
G01X4253Y2996D01*
G01X709Y2996D01*
G01X709Y3744D01*
G01X3268Y4413D02*
G01X3268Y4650D01*
G01X4450Y4177D02*
G01X4253Y4177D01*
G01X4450Y3783D02*
G01X4253Y3783D01*
G01X709Y4138D02*
G01X513Y4138D01*
G01X4253Y4177D02*
G01X4253Y4650D01*
G01X3859Y4650D02*
G01X3859Y4413D01*
G01X1103Y4650D02*
G01X1103Y4413D01*
G01X3859Y4413D02*
G01X3268Y4413D01*
G01X3859Y4650D02*
G01X3268Y4650D01*
G01X1103Y4413D02*
G01X1694Y4413D01*
G01X1694Y4650D01*
G01X1103Y4650D02*
G01X1694Y4650D01*
G01X709Y4138D02*
G01X709Y4650D01*
G01X513Y4650D01*
G01X513Y4138D01*
G01X4450Y4177D02*
G01X4450Y4650D01*
G01X4253Y4650D01*
G01X3268Y4650D02*
G01X1694Y4650D01*
G01X3859Y4650D02*
G01X4253Y4650D01*
G01X3859Y4413D02*
G01X4253Y4413D01*
G01X4253Y4177D02*
G01X4253Y3744D01*
G01X4450Y3783D02*
G01X4450Y4177D01*
G01X1103Y4413D02*
G01X709Y4413D01*
G01X1103Y4650D02*
G01X709Y4650D01*
G01X709Y4138D02*
G01X709Y3744D01*
G01X513Y3744D02*
G01X513Y4138D01*
G01X709Y3705D02*
G01X513Y3705D01*
G01X1339Y260D02*
G01X4450Y260D01*
G01X4450Y1283D01*
G01X1339Y260D02*
G01X513Y260D01*
G01X513Y1244D01*
G01X4253Y1283D02*
G01X4253Y496D01*
G01X709Y496D01*
G01X709Y1244D01*
G01X3268Y1913D02*
G01X3268Y2150D01*
G01X4450Y1677D02*
G01X4253Y1677D01*
G01X4450Y1283D02*
G01X4253Y1283D01*
G01X709Y1638D02*
G01X513Y1638D01*
G01X4253Y1677D02*
G01X4253Y2150D01*
G01X3859Y2150D02*
G01X3859Y1913D01*
G01X1103Y2150D02*
G01X1103Y1913D01*
G01X3859Y1913D02*
G01X3268Y1913D01*
G01X3859Y2150D02*
G01X3268Y2150D01*
G01X1103Y1913D02*
G01X1694Y1913D01*
G01X1694Y2150D01*
G01X1103Y2150D02*
G01X1694Y2150D01*
G01X709Y1638D02*
G01X709Y2150D01*
G01X513Y2150D01*
G01X513Y1638D01*
G01X4450Y1677D02*
G01X4450Y2150D01*
G01X4253Y2150D01*
G01X3268Y2150D02*
G01X1694Y2150D01*
G01X3859Y2150D02*
G01X4253Y2150D01*
G01X3859Y1913D02*
G01X4253Y1913D01*
G01X4253Y1677D02*
G01X4253Y1244D01*
G01X4450Y1283D02*
G01X4450Y1677D01*
G01X1103Y1913D02*
G01X709Y1913D01*
G01X1103Y2150D02*
G01X709Y2150D01*
G01X709Y1638D02*
G01X709Y1244D01*
G01X513Y1244D02*
G01X513Y1638D01*
G01X709Y1205D02*
G01X513Y1205D01*
G54D15*
G01X3701Y9217D02*
G01X3701Y9013D01*
G01X3600Y9115D02*
G01X3805Y9115D01*
G01X2750Y9115D02*
G01X2955Y9115D01*
G01X1200Y5865D02*
G01X1405Y5865D01*
G01X1200Y3415D02*
G01X1405Y3415D01*
G01X1250Y915D02*
G01X1455Y915D01*
G01X2101Y5967D02*
G01X2101Y5763D01*
G01X2000Y5865D02*
G01X2205Y5865D01*
G01X2101Y3467D02*
G01X2101Y3263D01*
G01X2000Y3365D02*
G01X2205Y3365D01*
G01X2101Y967D02*
G01X2101Y763D01*
G01X2000Y865D02*
G01X2205Y865D01*
G01X2776Y5925D02*
G01X2759Y5942D01*
G01X2732Y5951D01*
G01X2694Y5951D01*
G01X2667Y5942D01*
G01X2650Y5925D01*
G01X2650Y5905D01*
G01X2659Y5888D01*
G01X2667Y5878D01*
G01X2686Y5869D01*
G01X2740Y5851D01*
G01X2759Y5842D01*
G01X2767Y5834D01*
G01X2776Y5815D01*
G01X2776Y5788D01*
G01X2759Y5769D01*
G01X2732Y5761D01*
G01X2694Y5761D01*
G01X2667Y5769D01*
G01X2650Y5788D01*
G01X2973Y5905D02*
G01X2965Y5925D01*
G01X2946Y5942D01*
G01X2928Y5951D01*
G01X2892Y5951D01*
G01X2873Y5942D01*
G01X2855Y5925D01*
G01X2846Y5905D01*
G01X2836Y5878D01*
G01X2836Y5834D01*
G01X2846Y5805D01*
G01X2855Y5788D01*
G01X2873Y5769D01*
G01X2892Y5761D01*
G01X2928Y5761D01*
G01X2946Y5769D01*
G01X2965Y5788D01*
G01X2973Y5805D01*
G01X3034Y5951D02*
G01X3034Y5761D01*
G01X3034Y5761D02*
G01X3142Y5761D01*
G01X2776Y3325D02*
G01X2759Y3342D01*
G01X2732Y3351D01*
G01X2694Y3351D01*
G01X2667Y3342D01*
G01X2650Y3325D01*
G01X2650Y3305D01*
G01X2659Y3288D01*
G01X2667Y3278D01*
G01X2686Y3269D01*
G01X2740Y3251D01*
G01X2759Y3242D01*
G01X2767Y3234D01*
G01X2776Y3215D01*
G01X2776Y3188D01*
G01X2759Y3169D01*
G01X2732Y3161D01*
G01X2694Y3161D01*
G01X2667Y3169D01*
G01X2650Y3188D01*
G01X2973Y3305D02*
G01X2965Y3325D01*
G01X2946Y3342D01*
G01X2928Y3351D01*
G01X2892Y3351D01*
G01X2873Y3342D01*
G01X2855Y3325D01*
G01X2846Y3305D01*
G01X2836Y3278D01*
G01X2836Y3234D01*
G01X2846Y3205D01*
G01X2855Y3188D01*
G01X2873Y3169D01*
G01X2892Y3161D01*
G01X2928Y3161D01*
G01X2946Y3169D01*
G01X2965Y3188D01*
G01X2973Y3205D01*
G01X3034Y3351D02*
G01X3034Y3161D01*
G01X3034Y3161D02*
G01X3142Y3161D01*
G01X2776Y875D02*
G01X2759Y892D01*
G01X2732Y901D01*
G01X2694Y901D01*
G01X2667Y892D01*
G01X2650Y875D01*
G01X2650Y855D01*
G01X2659Y838D01*
G01X2667Y828D01*
G01X2686Y819D01*
G01X2740Y801D01*
G01X2759Y792D01*
G01X2767Y784D01*
G01X2776Y765D01*
G01X2776Y738D01*
G01X2759Y719D01*
G01X2732Y711D01*
G01X2694Y711D01*
G01X2667Y719D01*
G01X2650Y738D01*
G01X2973Y855D02*
G01X2965Y875D01*
G01X2946Y892D01*
G01X2928Y901D01*
G01X2892Y901D01*
G01X2873Y892D01*
G01X2855Y875D01*
G01X2846Y855D01*
G01X2836Y828D01*
G01X2836Y784D01*
G01X2846Y755D01*
G01X2855Y738D01*
G01X2873Y719D01*
G01X2892Y711D01*
G01X2928Y711D01*
G01X2946Y719D01*
G01X2965Y738D01*
G01X2973Y755D01*
G01X3034Y901D02*
G01X3034Y711D01*
G01X3034Y711D02*
G01X3142Y711D01*
G01X1976Y9225D02*
G01X1959Y9242D01*
G01X1932Y9251D01*
G01X1894Y9251D01*
G01X1867Y9242D01*
G01X1850Y9225D01*
G01X1850Y9205D01*
G01X1859Y9188D01*
G01X1867Y9178D01*
G01X1886Y9169D01*
G01X1940Y9151D01*
G01X1959Y9142D01*
G01X1967Y9134D01*
G01X1976Y9115D01*
G01X1976Y9088D01*
G01X1959Y9069D01*
G01X1932Y9061D01*
G01X1894Y9061D01*
G01X1867Y9069D01*
G01X1850Y9088D01*
G01X2173Y9205D02*
G01X2165Y9225D01*
G01X2146Y9242D01*
G01X2128Y9251D01*
G01X2092Y9251D01*
G01X2073Y9242D01*
G01X2055Y9225D01*
G01X2046Y9205D01*
G01X2036Y9178D01*
G01X2036Y9134D01*
G01X2046Y9105D01*
G01X2055Y9088D01*
G01X2073Y9069D01*
G01X2092Y9061D01*
G01X2128Y9061D01*
G01X2146Y9069D01*
G01X2165Y9088D01*
G01X2173Y9105D01*
G01X2234Y9251D02*
G01X2234Y9061D01*
G01X2234Y9061D02*
G01X2342Y9061D01*
G01X3576Y5925D02*
G01X3559Y5942D01*
G01X3532Y5951D01*
G01X3494Y5951D01*
G01X3467Y5942D01*
G01X3450Y5925D01*
G01X3450Y5905D01*
G01X3459Y5888D01*
G01X3467Y5878D01*
G01X3486Y5869D01*
G01X3540Y5851D01*
G01X3559Y5842D01*
G01X3567Y5834D01*
G01X3576Y5815D01*
G01X3576Y5788D01*
G01X3559Y5769D01*
G01X3532Y5761D01*
G01X3494Y5761D01*
G01X3467Y5769D01*
G01X3450Y5788D01*
G01X3636Y5951D02*
G01X3636Y5761D01*
G01X3636Y5951D02*
G01X3701Y5951D01*
G01X3728Y5942D01*
G01X3746Y5925D01*
G01X3755Y5905D01*
G01X3765Y5878D01*
G01X3765Y5834D01*
G01X3755Y5805D01*
G01X3746Y5788D01*
G01X3728Y5769D01*
G01X3701Y5761D01*
G01X3636Y5761D01*
G01X3896Y5951D02*
G01X3825Y5761D01*
G01X3896Y5951D02*
G01X3969Y5761D01*
G01X3851Y5825D02*
G01X3942Y5825D01*
G01X3576Y3375D02*
G01X3559Y3392D01*
G01X3532Y3401D01*
G01X3494Y3401D01*
G01X3467Y3392D01*
G01X3450Y3375D01*
G01X3450Y3355D01*
G01X3459Y3338D01*
G01X3467Y3328D01*
G01X3486Y3319D01*
G01X3540Y3301D01*
G01X3559Y3292D01*
G01X3567Y3284D01*
G01X3576Y3265D01*
G01X3576Y3238D01*
G01X3559Y3219D01*
G01X3532Y3211D01*
G01X3494Y3211D01*
G01X3467Y3219D01*
G01X3450Y3238D01*
G01X3636Y3401D02*
G01X3636Y3211D01*
G01X3636Y3401D02*
G01X3701Y3401D01*
G01X3728Y3392D01*
G01X3746Y3375D01*
G01X3755Y3355D01*
G01X3765Y3328D01*
G01X3765Y3284D01*
G01X3755Y3255D01*
G01X3746Y3238D01*
G01X3728Y3219D01*
G01X3701Y3211D01*
G01X3636Y3211D01*
G01X3896Y3401D02*
G01X3825Y3211D01*
G01X3896Y3401D02*
G01X3969Y3211D01*
G01X3851Y3275D02*
G01X3942Y3275D01*
G01X3626Y875D02*
G01X3609Y892D01*
G01X3582Y901D01*
G01X3544Y901D01*
G01X3517Y892D01*
G01X3500Y875D01*
G01X3500Y855D01*
G01X3509Y838D01*
G01X3517Y828D01*
G01X3536Y819D01*
G01X3590Y801D01*
G01X3609Y792D01*
G01X3617Y784D01*
G01X3626Y765D01*
G01X3626Y738D01*
G01X3609Y719D01*
G01X3582Y711D01*
G01X3544Y711D01*
G01X3517Y719D01*
G01X3500Y738D01*
G01X3686Y901D02*
G01X3686Y711D01*
G01X3686Y901D02*
G01X3751Y901D01*
G01X3778Y892D01*
G01X3796Y875D01*
G01X3805Y855D01*
G01X3815Y828D01*
G01X3815Y784D01*
G01X3805Y755D01*
G01X3796Y738D01*
G01X3778Y719D01*
G01X3751Y711D01*
G01X3686Y711D01*
G01X3946Y901D02*
G01X3875Y711D01*
G01X3946Y901D02*
G01X4019Y711D01*
G01X3901Y775D02*
G01X3992Y775D01*
G01X1126Y9225D02*
G01X1109Y9242D01*
G01X1082Y9251D01*
G01X1044Y9251D01*
G01X1017Y9242D01*
G01X1000Y9225D01*
G01X1000Y9205D01*
G01X1009Y9188D01*
G01X1017Y9178D01*
G01X1036Y9169D01*
G01X1090Y9151D01*
G01X1109Y9142D01*
G01X1117Y9134D01*
G01X1126Y9115D01*
G01X1126Y9088D01*
G01X1109Y9069D01*
G01X1082Y9061D01*
G01X1044Y9061D01*
G01X1017Y9069D01*
G01X1000Y9088D01*
G01X1186Y9251D02*
G01X1186Y9061D01*
G01X1186Y9251D02*
G01X1251Y9251D01*
G01X1278Y9242D01*
G01X1296Y9225D01*
G01X1305Y9205D01*
G01X1315Y9178D01*
G01X1315Y9134D01*
G01X1305Y9105D01*
G01X1296Y9088D01*
G01X1278Y9069D01*
G01X1251Y9061D01*
G01X1186Y9061D01*
G01X1446Y9251D02*
G01X1375Y9061D01*
G01X1446Y9251D02*
G01X1519Y9061D01*
G01X1401Y9125D02*
G01X1492Y9125D01*
G54D16*
G01X1657Y21838D02*
G01X1803Y21457D01*
G01X1948Y21838D02*
G01X1803Y21457D01*
G01X2067Y21838D02*
G01X2086Y21821D01*
G01X2103Y21838D01*
G01X2086Y21857D01*
G01X2067Y21838D01*
G01X2086Y21711D02*
G01X2086Y21457D01*
G01X2223Y21711D02*
G01X2223Y21457D01*
G01X2223Y21638D02*
G01X2278Y21694D01*
G01X2315Y21711D01*
G01X2369Y21711D01*
G01X2405Y21694D01*
G01X2423Y21638D01*
G01X2423Y21457D01*
G01X1930Y20748D02*
G01X1911Y20784D01*
G01X1875Y20821D01*
G01X1838Y20838D01*
G01X1765Y20838D01*
G01X1730Y20821D01*
G01X1692Y20784D01*
G01X1675Y20748D01*
G01X1657Y20694D01*
G01X1657Y20603D01*
G01X1675Y20548D01*
G01X1692Y20511D01*
G01X1730Y20475D01*
G01X1765Y20457D01*
G01X1838Y20457D01*
G01X1875Y20475D01*
G01X1911Y20511D01*
G01X1930Y20548D01*
G01X1930Y20603D01*
G01X1838Y20603D02*
G01X1930Y20603D01*
G01X2050Y20711D02*
G01X2050Y20457D01*
G01X2050Y20638D02*
G01X2103Y20694D01*
G01X2140Y20711D01*
G01X2194Y20711D01*
G01X2232Y20694D01*
G01X2250Y20638D01*
G01X2250Y20457D01*
G01X2588Y20838D02*
G01X2588Y20457D01*
G01X2588Y20657D02*
G01X2551Y20694D01*
G01X2515Y20711D01*
G01X2461Y20711D01*
G01X2423Y20694D01*
G01X2388Y20657D01*
G01X2369Y20603D01*
G01X2369Y20565D01*
G01X2388Y20511D01*
G01X2423Y20475D01*
G01X2461Y20457D01*
G01X2515Y20457D01*
G01X2551Y20475D01*
G01X2588Y20511D01*
G01X1911Y19784D02*
G01X1875Y19821D01*
G01X1821Y19838D01*
G01X1748Y19838D01*
G01X1692Y19821D01*
G01X1657Y19784D01*
G01X1657Y19748D01*
G01X1675Y19711D01*
G01X1692Y19694D01*
G01X1730Y19675D01*
G01X1838Y19638D01*
G01X1875Y19621D01*
G01X1892Y19603D01*
G01X1911Y19565D01*
G01X1911Y19511D01*
G01X1875Y19475D01*
G01X1821Y19457D01*
G01X1748Y19457D01*
G01X1692Y19475D01*
G01X1657Y19511D01*
G01X2032Y19838D02*
G01X2032Y19457D01*
G01X2032Y19838D02*
G01X2159Y19838D01*
G01X2213Y19821D01*
G01X2250Y19784D01*
G01X2267Y19748D01*
G01X2286Y19694D01*
G01X2286Y19603D01*
G01X2267Y19548D01*
G01X2250Y19511D01*
G01X2213Y19475D01*
G01X2159Y19457D01*
G01X2032Y19457D01*
G01X2551Y19838D02*
G01X2405Y19457D01*
G01X2551Y19838D02*
G01X2696Y19457D01*
G01X2461Y19584D02*
G01X2642Y19584D01*
G01X1911Y18784D02*
G01X1875Y18821D01*
G01X1821Y18838D01*
G01X1748Y18838D01*
G01X1692Y18821D01*
G01X1657Y18784D01*
G01X1657Y18748D01*
G01X1675Y18711D01*
G01X1692Y18694D01*
G01X1730Y18675D01*
G01X1838Y18638D01*
G01X1875Y18621D01*
G01X1892Y18603D01*
G01X1911Y18565D01*
G01X1911Y18511D01*
G01X1875Y18475D01*
G01X1821Y18457D01*
G01X1748Y18457D01*
G01X1692Y18475D01*
G01X1657Y18511D01*
G01X2303Y18748D02*
G01X2286Y18784D01*
G01X2250Y18821D01*
G01X2213Y18838D01*
G01X2140Y18838D01*
G01X2103Y18821D01*
G01X2067Y18784D01*
G01X2050Y18748D01*
G01X2032Y18694D01*
G01X2032Y18603D01*
G01X2050Y18548D01*
G01X2067Y18511D01*
G01X2103Y18475D01*
G01X2140Y18457D01*
G01X2213Y18457D01*
G01X2250Y18475D01*
G01X2286Y18511D01*
G01X2303Y18548D01*
G01X2423Y18838D02*
G01X2423Y18457D01*
G01X2423Y18457D02*
G01X2642Y18457D01*
G01X1657Y17838D02*
G01X1657Y17457D01*
G01X1657Y17838D02*
G01X1821Y17838D01*
G01X1875Y17821D01*
G01X1892Y17803D01*
G01X1911Y17765D01*
G01X1911Y17730D01*
G01X1892Y17694D01*
G01X1875Y17675D01*
G01X1821Y17657D01*
G01X1657Y17657D01*
G01X1784Y17657D02*
G01X1911Y17457D01*
G01X2286Y17784D02*
G01X2250Y17821D01*
G01X2194Y17838D01*
G01X2123Y17838D01*
G01X2067Y17821D01*
G01X2032Y17784D01*
G01X2032Y17748D01*
G01X2050Y17711D01*
G01X2067Y17694D01*
G01X2103Y17675D01*
G01X2213Y17638D01*
G01X2250Y17621D01*
G01X2267Y17603D01*
G01X2286Y17565D01*
G01X2286Y17511D01*
G01X2250Y17475D01*
G01X2194Y17457D01*
G01X2123Y17457D01*
G01X2067Y17475D01*
G01X2032Y17511D01*
G01X2532Y17838D02*
G01X2532Y17457D01*
G01X2405Y17838D02*
G01X2661Y17838D01*
G01X1803Y17088D02*
G01X1657Y16707D01*
G01X1803Y17088D02*
G01X1948Y16707D01*
G01X1711Y16834D02*
G01X1892Y16834D01*
G01X2176Y17088D02*
G01X2123Y17071D01*
G01X2086Y17015D01*
G01X2067Y16925D01*
G01X2067Y16871D01*
G01X2086Y16780D01*
G01X2123Y16725D01*
G01X2176Y16707D01*
G01X2213Y16707D01*
G01X2267Y16725D01*
G01X2303Y16780D01*
G01X2323Y16871D01*
G01X2323Y16925D01*
G01X2303Y17015D01*
G01X2267Y17071D01*
G01X2213Y17088D01*
G01X2176Y17088D01*
G01X1803Y16088D02*
G01X1657Y15707D01*
G01X1803Y16088D02*
G01X1948Y15707D01*
G01X1711Y15834D02*
G01X1892Y15834D01*
G01X2067Y16015D02*
G01X2103Y16034D01*
G01X2159Y16088D01*
G01X2159Y15707D01*
G01X1803Y15088D02*
G01X1657Y14707D01*
G01X1803Y15088D02*
G01X1948Y14707D01*
G01X1711Y14834D02*
G01X1892Y14834D01*
G01X2086Y14998D02*
G01X2086Y15015D01*
G01X2103Y15053D01*
G01X2123Y15071D01*
G01X2159Y15088D01*
G01X2232Y15088D01*
G01X2267Y15071D01*
G01X2286Y15053D01*
G01X2303Y15015D01*
G01X2303Y14980D01*
G01X2286Y14944D01*
G01X2250Y14888D01*
G01X2067Y14707D01*
G01X2323Y14707D01*
G01X1911Y14034D02*
G01X1875Y14071D01*
G01X1821Y14088D01*
G01X1748Y14088D01*
G01X1692Y14071D01*
G01X1657Y14034D01*
G01X1657Y13998D01*
G01X1675Y13961D01*
G01X1692Y13944D01*
G01X1730Y13925D01*
G01X1838Y13888D01*
G01X1875Y13871D01*
G01X1892Y13853D01*
G01X1911Y13815D01*
G01X1911Y13761D01*
G01X1875Y13725D01*
G01X1821Y13707D01*
G01X1748Y13707D01*
G01X1692Y13725D01*
G01X1657Y13761D01*
G01X2032Y14088D02*
G01X2032Y13707D01*
G01X2032Y14088D02*
G01X2159Y14088D01*
G01X2213Y14071D01*
G01X2250Y14034D01*
G01X2267Y13998D01*
G01X2286Y13944D01*
G01X2286Y13853D01*
G01X2267Y13798D01*
G01X2250Y13761D01*
G01X2213Y13725D01*
G01X2159Y13707D01*
G01X2032Y13707D01*
G01X2515Y14088D02*
G01X2461Y14071D01*
G01X2423Y14015D01*
G01X2405Y13925D01*
G01X2405Y13871D01*
G01X2423Y13780D01*
G01X2461Y13725D01*
G01X2515Y13707D01*
G01X2551Y13707D01*
G01X2605Y13725D01*
G01X2642Y13780D01*
G01X2661Y13871D01*
G01X2661Y13925D01*
G01X2642Y14015D01*
G01X2605Y14071D01*
G01X2551Y14088D01*
G01X2515Y14088D01*
G01X1911Y13034D02*
G01X1875Y13071D01*
G01X1821Y13088D01*
G01X1748Y13088D01*
G01X1692Y13071D01*
G01X1657Y13034D01*
G01X1657Y12998D01*
G01X1675Y12961D01*
G01X1692Y12944D01*
G01X1730Y12925D01*
G01X1838Y12888D01*
G01X1875Y12871D01*
G01X1892Y12853D01*
G01X1911Y12815D01*
G01X1911Y12761D01*
G01X1875Y12725D01*
G01X1821Y12707D01*
G01X1748Y12707D01*
G01X1692Y12725D01*
G01X1657Y12761D01*
G01X2303Y12998D02*
G01X2286Y13034D01*
G01X2250Y13071D01*
G01X2213Y13088D01*
G01X2140Y13088D01*
G01X2103Y13071D01*
G01X2067Y13034D01*
G01X2050Y12998D01*
G01X2032Y12944D01*
G01X2032Y12853D01*
G01X2050Y12798D01*
G01X2067Y12761D01*
G01X2103Y12725D01*
G01X2140Y12707D01*
G01X2213Y12707D01*
G01X2250Y12725D01*
G01X2286Y12761D01*
G01X2303Y12798D01*
G01X2423Y13088D02*
G01X2423Y12707D01*
G01X2423Y12707D02*
G01X2642Y12707D01*
G01X2871Y13088D02*
G01X2817Y13071D01*
G01X2780Y13015D01*
G01X2763Y12925D01*
G01X2763Y12871D01*
G01X2780Y12780D01*
G01X2817Y12725D01*
G01X2871Y12707D01*
G01X2907Y12707D01*
G01X2963Y12725D01*
G01X2998Y12780D01*
G01X3017Y12871D01*
G01X3017Y12925D01*
G01X2998Y13015D01*
G01X2963Y13071D01*
G01X2907Y13088D01*
G01X2871Y13088D01*
G01X1911Y12034D02*
G01X1875Y12071D01*
G01X1821Y12088D01*
G01X1748Y12088D01*
G01X1692Y12071D01*
G01X1657Y12034D01*
G01X1657Y11998D01*
G01X1675Y11961D01*
G01X1692Y11944D01*
G01X1730Y11925D01*
G01X1838Y11888D01*
G01X1875Y11871D01*
G01X1892Y11853D01*
G01X1911Y11815D01*
G01X1911Y11761D01*
G01X1875Y11725D01*
G01X1821Y11707D01*
G01X1748Y11707D01*
G01X1692Y11725D01*
G01X1657Y11761D01*
G01X2032Y12088D02*
G01X2032Y11707D01*
G01X2032Y12088D02*
G01X2159Y12088D01*
G01X2213Y12071D01*
G01X2250Y12034D01*
G01X2267Y11998D01*
G01X2286Y11944D01*
G01X2286Y11853D01*
G01X2267Y11798D01*
G01X2250Y11761D01*
G01X2213Y11725D01*
G01X2159Y11707D01*
G01X2032Y11707D01*
G01X2551Y12088D02*
G01X2405Y11707D01*
G01X2551Y12088D02*
G01X2696Y11707D01*
G01X2461Y11834D02*
G01X2642Y11834D01*
G01X2817Y12015D02*
G01X2853Y12034D01*
G01X2907Y12088D01*
G01X2907Y11707D01*
G01X1911Y10784D02*
G01X1875Y10821D01*
G01X1821Y10838D01*
G01X1748Y10838D01*
G01X1692Y10821D01*
G01X1657Y10784D01*
G01X1657Y10748D01*
G01X1675Y10711D01*
G01X1692Y10694D01*
G01X1730Y10675D01*
G01X1838Y10638D01*
G01X1875Y10621D01*
G01X1892Y10603D01*
G01X1911Y10565D01*
G01X1911Y10511D01*
G01X1875Y10475D01*
G01X1821Y10457D01*
G01X1748Y10457D01*
G01X1692Y10475D01*
G01X1657Y10511D01*
G01X2303Y10748D02*
G01X2286Y10784D01*
G01X2250Y10821D01*
G01X2213Y10838D01*
G01X2140Y10838D01*
G01X2103Y10821D01*
G01X2067Y10784D01*
G01X2050Y10748D01*
G01X2032Y10694D01*
G01X2032Y10603D01*
G01X2050Y10548D01*
G01X2067Y10511D01*
G01X2103Y10475D01*
G01X2140Y10457D01*
G01X2213Y10457D01*
G01X2250Y10475D01*
G01X2286Y10511D01*
G01X2303Y10548D01*
G01X2423Y10838D02*
G01X2423Y10457D01*
G01X2423Y10457D02*
G01X2642Y10457D01*
G01X2763Y10765D02*
G01X2798Y10784D01*
G01X2853Y10838D01*
G01X2853Y10457D01*
G01X6254Y10764D02*
G01X6217Y10800D01*
G01X6163Y10818D01*
G01X6090Y10818D01*
G01X6035Y10800D01*
G01X5999Y10764D01*
G01X5999Y10727D01*
G01X6017Y10691D01*
G01X6035Y10673D01*
G01X6072Y10654D01*
G01X6181Y10618D01*
G01X6217Y10600D01*
G01X6235Y10582D01*
G01X6254Y10545D01*
G01X6254Y10491D01*
G01X6217Y10454D01*
G01X6163Y10436D01*
G01X6090Y10436D01*
G01X6035Y10454D01*
G01X5999Y10491D01*
G01X6374Y10818D02*
G01X6374Y10436D01*
G01X6374Y10818D02*
G01X6501Y10818D01*
G01X6555Y10800D01*
G01X6592Y10764D01*
G01X6610Y10727D01*
G01X6628Y10673D01*
G01X6628Y10582D01*
G01X6610Y10527D01*
G01X6592Y10491D01*
G01X6555Y10454D01*
G01X6501Y10436D01*
G01X6374Y10436D01*
G01X6894Y10818D02*
G01X6748Y10436D01*
G01X6894Y10818D02*
G01X7039Y10436D01*
G01X6803Y10564D02*
G01X6985Y10564D01*
G01X7177Y10727D02*
G01X7177Y10745D01*
G01X7195Y10782D01*
G01X7214Y10800D01*
G01X7250Y10818D01*
G01X7323Y10818D01*
G01X7359Y10800D01*
G01X7377Y10782D01*
G01X7395Y10745D01*
G01X7395Y10709D01*
G01X7377Y10673D01*
G01X7341Y10618D01*
G01X7159Y10436D01*
G01X7414Y10436D01*
G01X6254Y11764D02*
G01X6217Y11800D01*
G01X6163Y11818D01*
G01X6090Y11818D01*
G01X6035Y11800D01*
G01X5999Y11764D01*
G01X5999Y11727D01*
G01X6017Y11691D01*
G01X6035Y11673D01*
G01X6072Y11654D01*
G01X6181Y11618D01*
G01X6217Y11600D01*
G01X6235Y11582D01*
G01X6254Y11545D01*
G01X6254Y11491D01*
G01X6217Y11454D01*
G01X6163Y11436D01*
G01X6090Y11436D01*
G01X6035Y11454D01*
G01X5999Y11491D01*
G01X6646Y11727D02*
G01X6628Y11764D01*
G01X6592Y11800D01*
G01X6555Y11818D01*
G01X6483Y11818D01*
G01X6446Y11800D01*
G01X6410Y11764D01*
G01X6392Y11727D01*
G01X6374Y11673D01*
G01X6374Y11582D01*
G01X6392Y11527D01*
G01X6410Y11491D01*
G01X6446Y11454D01*
G01X6483Y11436D01*
G01X6555Y11436D01*
G01X6592Y11454D01*
G01X6628Y11491D01*
G01X6646Y11527D01*
G01X6766Y11818D02*
G01X6766Y11436D01*
G01X6766Y11436D02*
G01X6985Y11436D01*
G01X7123Y11727D02*
G01X7123Y11745D01*
G01X7141Y11782D01*
G01X7159Y11800D01*
G01X7195Y11818D01*
G01X7268Y11818D01*
G01X7305Y11800D01*
G01X7323Y11782D01*
G01X7341Y11745D01*
G01X7341Y11709D01*
G01X7323Y11673D01*
G01X7286Y11618D01*
G01X7105Y11436D01*
G01X7359Y11436D01*
G01X6254Y12764D02*
G01X6217Y12800D01*
G01X6163Y12818D01*
G01X6090Y12818D01*
G01X6035Y12800D01*
G01X5999Y12764D01*
G01X5999Y12727D01*
G01X6017Y12691D01*
G01X6035Y12673D01*
G01X6072Y12654D01*
G01X6181Y12618D01*
G01X6217Y12600D01*
G01X6235Y12582D01*
G01X6254Y12545D01*
G01X6254Y12491D01*
G01X6217Y12454D01*
G01X6163Y12436D01*
G01X6090Y12436D01*
G01X6035Y12454D01*
G01X5999Y12491D01*
G01X6374Y12818D02*
G01X6374Y12436D01*
G01X6374Y12818D02*
G01X6501Y12818D01*
G01X6555Y12800D01*
G01X6592Y12764D01*
G01X6610Y12727D01*
G01X6628Y12673D01*
G01X6628Y12582D01*
G01X6610Y12527D01*
G01X6592Y12491D01*
G01X6555Y12454D01*
G01X6501Y12436D01*
G01X6374Y12436D01*
G01X6894Y12818D02*
G01X6748Y12436D01*
G01X6894Y12818D02*
G01X7039Y12436D01*
G01X6803Y12564D02*
G01X6985Y12564D01*
G01X7195Y12818D02*
G01X7395Y12818D01*
G01X7286Y12673D01*
G01X7341Y12673D01*
G01X7377Y12654D01*
G01X7395Y12636D01*
G01X7414Y12582D01*
G01X7414Y12545D01*
G01X7395Y12491D01*
G01X7359Y12454D01*
G01X7305Y12436D01*
G01X7250Y12436D01*
G01X7195Y12454D01*
G01X7177Y12473D01*
G01X7159Y12509D01*
G01X6254Y13764D02*
G01X6217Y13800D01*
G01X6163Y13818D01*
G01X6090Y13818D01*
G01X6035Y13800D01*
G01X5999Y13764D01*
G01X5999Y13727D01*
G01X6017Y13691D01*
G01X6035Y13673D01*
G01X6072Y13654D01*
G01X6181Y13618D01*
G01X6217Y13600D01*
G01X6235Y13582D01*
G01X6254Y13545D01*
G01X6254Y13491D01*
G01X6217Y13454D01*
G01X6163Y13436D01*
G01X6090Y13436D01*
G01X6035Y13454D01*
G01X5999Y13491D01*
G01X6646Y13727D02*
G01X6628Y13764D01*
G01X6592Y13800D01*
G01X6555Y13818D01*
G01X6483Y13818D01*
G01X6446Y13800D01*
G01X6410Y13764D01*
G01X6392Y13727D01*
G01X6374Y13673D01*
G01X6374Y13582D01*
G01X6392Y13527D01*
G01X6410Y13491D01*
G01X6446Y13454D01*
G01X6483Y13436D01*
G01X6555Y13436D01*
G01X6592Y13454D01*
G01X6628Y13491D01*
G01X6646Y13527D01*
G01X6766Y13818D02*
G01X6766Y13436D01*
G01X6766Y13436D02*
G01X6985Y13436D01*
G01X7141Y13818D02*
G01X7341Y13818D01*
G01X7232Y13673D01*
G01X7286Y13673D01*
G01X7323Y13654D01*
G01X7341Y13636D01*
G01X7359Y13582D01*
G01X7359Y13545D01*
G01X7341Y13491D01*
G01X7305Y13454D01*
G01X7250Y13436D01*
G01X7195Y13436D01*
G01X7141Y13454D01*
G01X7123Y13473D01*
G01X7105Y13509D01*
G01X6254Y14764D02*
G01X6217Y14800D01*
G01X6163Y14818D01*
G01X6090Y14818D01*
G01X6035Y14800D01*
G01X5999Y14764D01*
G01X5999Y14727D01*
G01X6017Y14691D01*
G01X6035Y14673D01*
G01X6072Y14654D01*
G01X6181Y14618D01*
G01X6217Y14600D01*
G01X6235Y14582D01*
G01X6254Y14545D01*
G01X6254Y14491D01*
G01X6217Y14454D01*
G01X6163Y14436D01*
G01X6090Y14436D01*
G01X6035Y14454D01*
G01X5999Y14491D01*
G01X6374Y14818D02*
G01X6374Y14436D01*
G01X6374Y14818D02*
G01X6501Y14818D01*
G01X6555Y14800D01*
G01X6592Y14764D01*
G01X6610Y14727D01*
G01X6628Y14673D01*
G01X6628Y14582D01*
G01X6610Y14527D01*
G01X6592Y14491D01*
G01X6555Y14454D01*
G01X6501Y14436D01*
G01X6374Y14436D01*
G01X6894Y14818D02*
G01X6748Y14436D01*
G01X6894Y14818D02*
G01X7039Y14436D01*
G01X6803Y14564D02*
G01X6985Y14564D01*
G01X7341Y14818D02*
G01X7159Y14564D01*
G01X7432Y14564D01*
G01X7341Y14818D02*
G01X7341Y14436D01*
G01X6254Y15764D02*
G01X6217Y15800D01*
G01X6163Y15818D01*
G01X6090Y15818D01*
G01X6035Y15800D01*
G01X5999Y15764D01*
G01X5999Y15727D01*
G01X6017Y15691D01*
G01X6035Y15673D01*
G01X6072Y15654D01*
G01X6181Y15618D01*
G01X6217Y15600D01*
G01X6235Y15582D01*
G01X6254Y15545D01*
G01X6254Y15491D01*
G01X6217Y15454D01*
G01X6163Y15436D01*
G01X6090Y15436D01*
G01X6035Y15454D01*
G01X5999Y15491D01*
G01X6646Y15727D02*
G01X6628Y15764D01*
G01X6592Y15800D01*
G01X6555Y15818D01*
G01X6483Y15818D01*
G01X6446Y15800D01*
G01X6410Y15764D01*
G01X6392Y15727D01*
G01X6374Y15673D01*
G01X6374Y15582D01*
G01X6392Y15527D01*
G01X6410Y15491D01*
G01X6446Y15454D01*
G01X6483Y15436D01*
G01X6555Y15436D01*
G01X6592Y15454D01*
G01X6628Y15491D01*
G01X6646Y15527D01*
G01X6766Y15818D02*
G01X6766Y15436D01*
G01X6766Y15436D02*
G01X6985Y15436D01*
G01X7286Y15818D02*
G01X7105Y15564D01*
G01X7377Y15564D01*
G01X7286Y15818D02*
G01X7286Y15436D01*
G01X6254Y16764D02*
G01X6217Y16800D01*
G01X6163Y16818D01*
G01X6090Y16818D01*
G01X6035Y16800D01*
G01X5999Y16764D01*
G01X5999Y16727D01*
G01X6017Y16691D01*
G01X6035Y16673D01*
G01X6072Y16654D01*
G01X6181Y16618D01*
G01X6217Y16600D01*
G01X6235Y16582D01*
G01X6254Y16545D01*
G01X6254Y16491D01*
G01X6217Y16454D01*
G01X6163Y16436D01*
G01X6090Y16436D01*
G01X6035Y16454D01*
G01X5999Y16491D01*
G01X6374Y16818D02*
G01X6374Y16436D01*
G01X6374Y16818D02*
G01X6501Y16818D01*
G01X6555Y16800D01*
G01X6592Y16764D01*
G01X6610Y16727D01*
G01X6628Y16673D01*
G01X6628Y16582D01*
G01X6610Y16527D01*
G01X6592Y16491D01*
G01X6555Y16454D01*
G01X6501Y16436D01*
G01X6374Y16436D01*
G01X6894Y16818D02*
G01X6748Y16436D01*
G01X6894Y16818D02*
G01X7039Y16436D01*
G01X6803Y16564D02*
G01X6985Y16564D01*
G01X7377Y16818D02*
G01X7195Y16818D01*
G01X7177Y16654D01*
G01X7195Y16673D01*
G01X7250Y16691D01*
G01X7305Y16691D01*
G01X7359Y16673D01*
G01X7395Y16636D01*
G01X7414Y16582D01*
G01X7414Y16545D01*
G01X7395Y16491D01*
G01X7359Y16454D01*
G01X7305Y16436D01*
G01X7250Y16436D01*
G01X7195Y16454D01*
G01X7177Y16473D01*
G01X7159Y16509D01*
G01X6254Y17764D02*
G01X6217Y17800D01*
G01X6163Y17818D01*
G01X6090Y17818D01*
G01X6035Y17800D01*
G01X5999Y17764D01*
G01X5999Y17727D01*
G01X6017Y17691D01*
G01X6035Y17673D01*
G01X6072Y17654D01*
G01X6181Y17618D01*
G01X6217Y17600D01*
G01X6235Y17582D01*
G01X6254Y17545D01*
G01X6254Y17491D01*
G01X6217Y17454D01*
G01X6163Y17436D01*
G01X6090Y17436D01*
G01X6035Y17454D01*
G01X5999Y17491D01*
G01X6646Y17727D02*
G01X6628Y17764D01*
G01X6592Y17800D01*
G01X6555Y17818D01*
G01X6483Y17818D01*
G01X6446Y17800D01*
G01X6410Y17764D01*
G01X6392Y17727D01*
G01X6374Y17673D01*
G01X6374Y17582D01*
G01X6392Y17527D01*
G01X6410Y17491D01*
G01X6446Y17454D01*
G01X6483Y17436D01*
G01X6555Y17436D01*
G01X6592Y17454D01*
G01X6628Y17491D01*
G01X6646Y17527D01*
G01X6766Y17818D02*
G01X6766Y17436D01*
G01X6766Y17436D02*
G01X6985Y17436D01*
G01X7323Y17818D02*
G01X7141Y17818D01*
G01X7123Y17654D01*
G01X7141Y17673D01*
G01X7195Y17691D01*
G01X7250Y17691D01*
G01X7305Y17673D01*
G01X7341Y17636D01*
G01X7359Y17582D01*
G01X7359Y17545D01*
G01X7341Y17491D01*
G01X7305Y17454D01*
G01X7250Y17436D01*
G01X7195Y17436D01*
G01X7141Y17454D01*
G01X7123Y17473D01*
G01X7105Y17509D01*
G01X6254Y18764D02*
G01X6217Y18800D01*
G01X6163Y18818D01*
G01X6090Y18818D01*
G01X6035Y18800D01*
G01X5999Y18764D01*
G01X5999Y18727D01*
G01X6017Y18691D01*
G01X6035Y18673D01*
G01X6072Y18654D01*
G01X6181Y18618D01*
G01X6217Y18600D01*
G01X6235Y18582D01*
G01X6254Y18545D01*
G01X6254Y18491D01*
G01X6217Y18454D01*
G01X6163Y18436D01*
G01X6090Y18436D01*
G01X6035Y18454D01*
G01X5999Y18491D01*
G01X6374Y18818D02*
G01X6374Y18436D01*
G01X6374Y18818D02*
G01X6501Y18818D01*
G01X6555Y18800D01*
G01X6592Y18764D01*
G01X6610Y18727D01*
G01X6628Y18673D01*
G01X6628Y18582D01*
G01X6610Y18527D01*
G01X6592Y18491D01*
G01X6555Y18454D01*
G01X6501Y18436D01*
G01X6374Y18436D01*
G01X6894Y18818D02*
G01X6748Y18436D01*
G01X6894Y18818D02*
G01X7039Y18436D01*
G01X6803Y18564D02*
G01X6985Y18564D01*
G01X7377Y18764D02*
G01X7359Y18800D01*
G01X7305Y18818D01*
G01X7268Y18818D01*
G01X7214Y18800D01*
G01X7177Y18745D01*
G01X7159Y18654D01*
G01X7159Y18564D01*
G01X7177Y18491D01*
G01X7214Y18454D01*
G01X7268Y18436D01*
G01X7286Y18436D01*
G01X7341Y18454D01*
G01X7377Y18491D01*
G01X7395Y18545D01*
G01X7395Y18564D01*
G01X7377Y18618D01*
G01X7341Y18654D01*
G01X7286Y18673D01*
G01X7268Y18673D01*
G01X7214Y18654D01*
G01X7177Y18618D01*
G01X7159Y18564D01*
G01X6254Y19764D02*
G01X6217Y19800D01*
G01X6163Y19818D01*
G01X6090Y19818D01*
G01X6035Y19800D01*
G01X5999Y19764D01*
G01X5999Y19727D01*
G01X6017Y19691D01*
G01X6035Y19673D01*
G01X6072Y19654D01*
G01X6181Y19618D01*
G01X6217Y19600D01*
G01X6235Y19582D01*
G01X6254Y19545D01*
G01X6254Y19491D01*
G01X6217Y19454D01*
G01X6163Y19436D01*
G01X6090Y19436D01*
G01X6035Y19454D01*
G01X5999Y19491D01*
G01X6646Y19727D02*
G01X6628Y19764D01*
G01X6592Y19800D01*
G01X6555Y19818D01*
G01X6483Y19818D01*
G01X6446Y19800D01*
G01X6410Y19764D01*
G01X6392Y19727D01*
G01X6374Y19673D01*
G01X6374Y19582D01*
G01X6392Y19527D01*
G01X6410Y19491D01*
G01X6446Y19454D01*
G01X6483Y19436D01*
G01X6555Y19436D01*
G01X6592Y19454D01*
G01X6628Y19491D01*
G01X6646Y19527D01*
G01X6766Y19818D02*
G01X6766Y19436D01*
G01X6766Y19436D02*
G01X6985Y19436D01*
G01X7323Y19764D02*
G01X7305Y19800D01*
G01X7250Y19818D01*
G01X7214Y19818D01*
G01X7159Y19800D01*
G01X7123Y19745D01*
G01X7105Y19654D01*
G01X7105Y19564D01*
G01X7123Y19491D01*
G01X7159Y19454D01*
G01X7214Y19436D01*
G01X7232Y19436D01*
G01X7286Y19454D01*
G01X7323Y19491D01*
G01X7341Y19545D01*
G01X7341Y19564D01*
G01X7323Y19618D01*
G01X7286Y19654D01*
G01X7232Y19673D01*
G01X7214Y19673D01*
G01X7159Y19654D01*
G01X7123Y19618D01*
G01X7105Y19564D01*
G01X6254Y20764D02*
G01X6217Y20800D01*
G01X6163Y20818D01*
G01X6090Y20818D01*
G01X6035Y20800D01*
G01X5999Y20764D01*
G01X5999Y20727D01*
G01X6017Y20691D01*
G01X6035Y20673D01*
G01X6072Y20654D01*
G01X6181Y20618D01*
G01X6217Y20600D01*
G01X6235Y20582D01*
G01X6254Y20545D01*
G01X6254Y20491D01*
G01X6217Y20454D01*
G01X6163Y20436D01*
G01X6090Y20436D01*
G01X6035Y20454D01*
G01X5999Y20491D01*
G01X6374Y20818D02*
G01X6374Y20436D01*
G01X6374Y20818D02*
G01X6501Y20818D01*
G01X6555Y20800D01*
G01X6592Y20764D01*
G01X6610Y20727D01*
G01X6628Y20673D01*
G01X6628Y20582D01*
G01X6610Y20527D01*
G01X6592Y20491D01*
G01X6555Y20454D01*
G01X6501Y20436D01*
G01X6374Y20436D01*
G01X6894Y20818D02*
G01X6748Y20436D01*
G01X6894Y20818D02*
G01X7039Y20436D01*
G01X6803Y20564D02*
G01X6985Y20564D01*
G01X7414Y20818D02*
G01X7232Y20436D01*
G01X7159Y20818D02*
G01X7414Y20818D01*
G01X6254Y21764D02*
G01X6217Y21800D01*
G01X6163Y21818D01*
G01X6090Y21818D01*
G01X6035Y21800D01*
G01X5999Y21764D01*
G01X5999Y21727D01*
G01X6017Y21691D01*
G01X6035Y21673D01*
G01X6072Y21654D01*
G01X6181Y21618D01*
G01X6217Y21600D01*
G01X6235Y21582D01*
G01X6254Y21545D01*
G01X6254Y21491D01*
G01X6217Y21454D01*
G01X6163Y21436D01*
G01X6090Y21436D01*
G01X6035Y21454D01*
G01X5999Y21491D01*
G01X6646Y21727D02*
G01X6628Y21764D01*
G01X6592Y21800D01*
G01X6555Y21818D01*
G01X6483Y21818D01*
G01X6446Y21800D01*
G01X6410Y21764D01*
G01X6392Y21727D01*
G01X6374Y21673D01*
G01X6374Y21582D01*
G01X6392Y21527D01*
G01X6410Y21491D01*
G01X6446Y21454D01*
G01X6483Y21436D01*
G01X6555Y21436D01*
G01X6592Y21454D01*
G01X6628Y21491D01*
G01X6646Y21527D01*
G01X6766Y21818D02*
G01X6766Y21436D01*
G01X6766Y21436D02*
G01X6985Y21436D01*
G01X7359Y21818D02*
G01X7177Y21436D01*
G01X7105Y21818D02*
G01X7359Y21818D01*
G54D15*
G01X2490Y10101D02*
G01X2400Y9863D01*
G01X2490Y10101D02*
G01X2582Y9863D01*
G01X2434Y9942D02*
G01X2548Y9942D01*
G01X2657Y10057D02*
G01X2680Y10067D01*
G01X2713Y10101D01*
G01X2713Y9863D01*
G01X4744Y5580D02*
G01X4767Y5590D01*
G01X4790Y5613D01*
G01X4802Y5636D01*
G01X4802Y5682D01*
G01X4790Y5705D01*
G01X4767Y5726D01*
G01X4744Y5738D01*
G01X4711Y5750D01*
G01X4655Y5750D01*
G01X4619Y5738D01*
G01X4598Y5726D01*
G01X4575Y5705D01*
G01X4563Y5682D01*
G01X4563Y5636D01*
G01X4575Y5613D01*
G01X4598Y5590D01*
G01X4619Y5580D01*
G01X4757Y5505D02*
G01X4767Y5482D01*
G01X4802Y5448D01*
G01X4563Y5448D01*
G01X4794Y3030D02*
G01X4818Y3040D01*
G01X4840Y3063D01*
G01X4852Y3086D01*
G01X4852Y3132D01*
G01X4840Y3155D01*
G01X4818Y3176D01*
G01X4794Y3188D01*
G01X4761Y3200D01*
G01X4705Y3200D01*
G01X4669Y3188D01*
G01X4648Y3176D01*
G01X4625Y3155D01*
G01X4613Y3132D01*
G01X4613Y3086D01*
G01X4625Y3063D01*
G01X4648Y3040D01*
G01X4669Y3030D01*
G01X4794Y2942D02*
G01X4806Y2942D01*
G01X4830Y2932D01*
G01X4840Y2919D01*
G01X4852Y2898D01*
G01X4852Y2851D01*
G01X4840Y2830D01*
G01X4830Y2817D01*
G01X4806Y2807D01*
G01X4784Y2807D01*
G01X4761Y2817D01*
G01X4726Y2840D01*
G01X4613Y2955D01*
G01X4613Y2794D01*
G01X4794Y680D02*
G01X4818Y690D01*
G01X4840Y713D01*
G01X4852Y736D01*
G01X4852Y782D01*
G01X4840Y805D01*
G01X4818Y826D01*
G01X4794Y838D01*
G01X4761Y850D01*
G01X4705Y850D01*
G01X4669Y838D01*
G01X4648Y826D01*
G01X4625Y805D01*
G01X4613Y782D01*
G01X4613Y736D01*
G01X4625Y713D01*
G01X4648Y690D01*
G01X4669Y680D01*
G01X4852Y582D02*
G01X4852Y457D01*
G01X4761Y525D01*
G01X4761Y490D01*
G01X4750Y467D01*
G01X4738Y457D01*
G01X4705Y444D01*
G01X4682Y444D01*
G01X4648Y457D01*
G01X4625Y480D01*
G01X4613Y513D01*
G01X4613Y548D01*
G01X4625Y582D01*
G01X4636Y592D01*
G01X4659Y605D01*
M00*
M02*
