;Layer: Drill PTH
;EasyEDA v6.4.5, 2020-09-09T10:55:23+00:00
;8b858644916349d4974128f92eca4aae,b97ca10cbf7f413284ca0e80e24dcd20,10
;Gerber Generator version 0.2
M48
INCH,LZ,00.0000
;Holesize 1 = 0.032 INCH
T01C0.032
;Holesize 2 = 0.035 INCH
T02C0.035
%
G05
G90
T01
X+002075Y+008559
X+002861Y+008559
X+003649Y+008558
X+001286Y+008559
X+002875Y+006490
X+002088Y+006490
X+001300Y+006491
X+003663Y+006490
X+002875Y+003940
X+002088Y+003940
X+001300Y+003941
X+003663Y+003940
X+002875Y+001440
X+002088Y+001440
X+001300Y+001441
X+003663Y+001440
T02
X+000905Y+021671G85X+000907Y+021671
X+000905Y+020671G85X+000907Y+020671
X+000905Y+019671G85X+000907Y+019671
X+000905Y+018671G85X+000907Y+018671
X+000905Y+017671G85X+000907Y+017671
X+000905Y+016671G85X+000907Y+016671
X+000905Y+015671G85X+000907Y+015671
X+000905Y+014671G85X+000907Y+014671
X+000905Y+013671G85X+000907Y+013671
X+000905Y+012671G85X+000907Y+012671
X+000905Y+011671G85X+000907Y+011671
X+000905Y+010671G85X+000907Y+010671
X+007906Y+010671G85X+007907Y+010671
X+007906Y+011671G85X+007907Y+011671
X+007906Y+012671G85X+007907Y+012671
X+007906Y+013671G85X+007907Y+013671
X+007906Y+014671G85X+007907Y+014671
X+007906Y+015671G85X+007907Y+015671
X+007906Y+016671G85X+007907Y+016671
X+007906Y+017671G85X+007907Y+017671
X+007906Y+018671G85X+007907Y+018671
X+007906Y+019671G85X+007907Y+019671
X+007906Y+020671G85X+007907Y+020671
X+007906Y+021671G85X+007907Y+021671
M30
