G04 Layer: TopSilkLayer*
G04 EasyEDA v6.4.5, 2020-09-10T16:32:17+00:00*
G04 8311660e1345463fb4ee0ea210310b8d,b97ca10cbf7f413284ca0e80e24dcd20,10*
G04 Gerber Generator version 0.2*
G04 Scale: 100 percent, Rotated: No, Reflected: No *
G04 Dimensions in inches *
G04 leading zeros omitted , absolute positions ,2 integer and 4 decimal *
%FSLAX24Y24*%
%MOIN*%
G90*
G70D02*

%ADD10C,0.010000*%
%ADD16C,0.024000*%
%ADD17C,0.006000*%

%LPD*%
G54D10*
G01X11059Y1045D02*
G01X11209Y1045D01*
G01X11259Y1095D01*
G01X13159Y1095D01*
G01X13209Y1045D01*
G01X13359Y1045D01*
G54D16*
G01X10889Y1500D02*
G01X10653Y1500D01*
G01X13769Y1500D02*
G01X13533Y1500D01*
G54D10*
G01X11059Y1945D02*
G01X11209Y1945D01*
G01X11259Y1895D01*
G01X13159Y1895D01*
G01X13209Y1945D01*
G01X13359Y1945D01*
G01X10959Y1145D02*
G01X10959Y1845D01*
G01X13459Y1145D02*
G01X13459Y1845D01*
G01X9609Y6145D02*
G01X9759Y6145D01*
G01X9809Y6195D01*
G01X11709Y6195D01*
G01X11759Y6145D01*
G01X11909Y6145D01*
G54D16*
G01X9439Y6600D02*
G01X9203Y6600D01*
G01X12319Y6600D02*
G01X12083Y6600D01*
G54D10*
G01X9609Y7045D02*
G01X9759Y7045D01*
G01X9809Y6995D01*
G01X11709Y6995D01*
G01X11759Y7045D01*
G01X11909Y7045D01*
G01X9509Y6245D02*
G01X9509Y6945D01*
G01X12009Y6245D02*
G01X12009Y6945D01*
G01X3409Y6045D02*
G01X3559Y6045D01*
G01X3609Y6095D01*
G01X5509Y6095D01*
G01X5559Y6045D01*
G01X5709Y6045D01*
G54D16*
G01X3239Y6500D02*
G01X3003Y6500D01*
G01X6119Y6500D02*
G01X5883Y6500D01*
G54D10*
G01X3409Y6945D02*
G01X3559Y6945D01*
G01X3609Y6895D01*
G01X5509Y6895D01*
G01X5559Y6945D01*
G01X5709Y6945D01*
G01X3309Y6145D02*
G01X3309Y6845D01*
G01X5809Y6145D02*
G01X5809Y6845D01*
G01X300Y5150D02*
G01X2700Y5150D01*
G01X2700Y2750D01*
G01X300Y2750D01*
G01X300Y5150D01*
G01X4300Y5150D02*
G01X6700Y5150D01*
G01X6700Y2750D01*
G01X4300Y2750D01*
G01X4300Y5150D01*
G01X8300Y5150D02*
G01X10700Y5150D01*
G01X10700Y2750D01*
G01X8300Y2750D01*
G01X8300Y5150D01*
G01X12300Y5150D02*
G01X14700Y5150D01*
G01X14700Y2750D01*
G01X12300Y2750D01*
G01X12300Y5150D01*
G01X3560Y2189D02*
G01X450Y2189D01*
G01X450Y1166D01*
G01X1985Y2189D02*
G01X3599Y2189D01*
G01X3599Y1205D01*
G01X646Y1166D02*
G01X646Y1953D01*
G01X3402Y1953D01*
G01X3402Y1205D01*
G01X1631Y536D02*
G01X1631Y300D01*
G01X450Y772D02*
G01X646Y772D01*
G01X450Y1166D02*
G01X646Y1166D01*
G01X3402Y811D02*
G01X3599Y811D01*
G01X646Y772D02*
G01X646Y300D01*
G01X1040Y300D02*
G01X1040Y536D01*
G01X3009Y300D02*
G01X3009Y536D01*
G01X1040Y536D02*
G01X1631Y536D01*
G01X1040Y300D02*
G01X1631Y300D01*
G01X3009Y536D02*
G01X2418Y536D01*
G01X2418Y300D01*
G01X3009Y300D02*
G01X2418Y300D01*
G01X3402Y811D02*
G01X3402Y300D01*
G01X3599Y300D01*
G01X3599Y811D01*
G01X450Y772D02*
G01X450Y300D01*
G01X646Y300D01*
G01X1631Y300D02*
G01X2418Y300D01*
G01X1040Y300D02*
G01X646Y300D01*
G01X1040Y536D02*
G01X646Y536D01*
G01X646Y772D02*
G01X646Y1205D01*
G01X450Y1166D02*
G01X450Y772D01*
G01X3009Y536D02*
G01X3402Y536D01*
G01X3009Y300D02*
G01X3402Y300D01*
G01X3402Y811D02*
G01X3402Y1205D01*
G01X3599Y1205D02*
G01X3599Y811D01*
G01X3402Y1244D02*
G01X3599Y1244D01*
G01X5409Y1045D02*
G01X5559Y1045D01*
G01X5609Y1095D01*
G01X7509Y1095D01*
G01X7559Y1045D01*
G01X7709Y1045D01*
G54D16*
G01X5239Y1500D02*
G01X5003Y1500D01*
G01X8119Y1500D02*
G01X7883Y1500D01*
G54D10*
G01X5409Y1945D02*
G01X5559Y1945D01*
G01X5609Y1895D01*
G01X7509Y1895D01*
G01X7559Y1945D01*
G01X7709Y1945D01*
G01X5309Y1145D02*
G01X5309Y1845D01*
G01X7809Y1145D02*
G01X7809Y1845D01*
G54D17*
G01X11950Y1565D02*
G01X11968Y1575D01*
G01X11994Y1601D01*
G01X11994Y1411D01*
G01X12110Y1601D02*
G01X12082Y1592D01*
G01X12064Y1565D01*
G01X12055Y1519D01*
G01X12055Y1492D01*
G01X12064Y1446D01*
G01X12082Y1419D01*
G01X12110Y1411D01*
G01X12127Y1411D01*
G01X12155Y1419D01*
G01X12173Y1446D01*
G01X12182Y1492D01*
G01X12182Y1519D01*
G01X12173Y1565D01*
G01X12155Y1592D01*
G01X12127Y1601D01*
G01X12110Y1601D01*
G01X12297Y1601D02*
G01X12269Y1592D01*
G01X12252Y1565D01*
G01X12243Y1519D01*
G01X12243Y1492D01*
G01X12252Y1446D01*
G01X12269Y1419D01*
G01X12297Y1411D01*
G01X12314Y1411D01*
G01X12343Y1419D01*
G01X12360Y1446D01*
G01X12369Y1492D01*
G01X12369Y1519D01*
G01X12360Y1565D01*
G01X12343Y1592D01*
G01X12314Y1601D01*
G01X12297Y1601D01*
G01X10409Y6705D02*
G01X10409Y6715D01*
G01X10418Y6734D01*
G01X10427Y6742D01*
G01X10444Y6751D01*
G01X10481Y6751D01*
G01X10500Y6742D01*
G01X10509Y6734D01*
G01X10518Y6715D01*
G01X10518Y6696D01*
G01X10509Y6678D01*
G01X10490Y6651D01*
G01X10400Y6561D01*
G01X10527Y6561D01*
G01X10714Y6751D02*
G01X10623Y6561D01*
G01X10586Y6751D02*
G01X10714Y6751D01*
G01X10828Y6751D02*
G01X10802Y6742D01*
G01X10784Y6715D01*
G01X10775Y6669D01*
G01X10775Y6642D01*
G01X10784Y6596D01*
G01X10802Y6569D01*
G01X10828Y6561D01*
G01X10847Y6561D01*
G01X10875Y6569D01*
G01X10893Y6596D01*
G01X10902Y6642D01*
G01X10902Y6669D01*
G01X10893Y6715D01*
G01X10875Y6742D01*
G01X10847Y6751D01*
G01X10828Y6751D01*
G01X4408Y6601D02*
G01X4317Y6601D01*
G01X4308Y6519D01*
G01X4317Y6528D01*
G01X4345Y6538D01*
G01X4372Y6538D01*
G01X4399Y6528D01*
G01X4417Y6511D01*
G01X4427Y6484D01*
G01X4427Y6465D01*
G01X4417Y6438D01*
G01X4399Y6419D01*
G01X4372Y6411D01*
G01X4345Y6411D01*
G01X4317Y6419D01*
G01X4308Y6428D01*
G01X4299Y6446D01*
G01X4541Y6601D02*
G01X4514Y6592D01*
G01X4496Y6565D01*
G01X4487Y6519D01*
G01X4487Y6492D01*
G01X4496Y6446D01*
G01X4514Y6419D01*
G01X4541Y6411D01*
G01X4559Y6411D01*
G01X4587Y6419D01*
G01X4605Y6446D01*
G01X4614Y6492D01*
G01X4614Y6519D01*
G01X4605Y6565D01*
G01X4587Y6592D01*
G01X4559Y6601D01*
G01X4541Y6601D01*
G01X4728Y6601D02*
G01X4701Y6592D01*
G01X4683Y6565D01*
G01X4674Y6519D01*
G01X4674Y6492D01*
G01X4683Y6446D01*
G01X4701Y6419D01*
G01X4728Y6411D01*
G01X4747Y6411D01*
G01X4774Y6419D01*
G01X4792Y6446D01*
G01X4801Y6492D01*
G01X4801Y6519D01*
G01X4792Y6565D01*
G01X4774Y6592D01*
G01X4747Y6601D01*
G01X4728Y6601D01*
G01X1400Y4951D02*
G01X1400Y4761D01*
G01X1400Y4951D02*
G01X1482Y4951D01*
G01X1509Y4942D01*
G01X1517Y4934D01*
G01X1526Y4915D01*
G01X1526Y4896D01*
G01X1517Y4878D01*
G01X1509Y4869D01*
G01X1482Y4861D01*
G01X1400Y4861D02*
G01X1482Y4861D01*
G01X1509Y4851D01*
G01X1517Y4842D01*
G01X1526Y4825D01*
G01X1526Y4796D01*
G01X1517Y4778D01*
G01X1509Y4769D01*
G01X1482Y4761D01*
G01X1400Y4761D01*
G01X1586Y4915D02*
G01X1605Y4925D01*
G01X1632Y4951D01*
G01X1632Y4761D01*
G01X5400Y5001D02*
G01X5400Y4811D01*
G01X5400Y5001D02*
G01X5481Y5001D01*
G01X5509Y4992D01*
G01X5518Y4984D01*
G01X5527Y4965D01*
G01X5527Y4946D01*
G01X5518Y4928D01*
G01X5509Y4919D01*
G01X5481Y4911D01*
G01X5400Y4911D02*
G01X5481Y4911D01*
G01X5509Y4901D01*
G01X5518Y4892D01*
G01X5527Y4875D01*
G01X5527Y4846D01*
G01X5518Y4828D01*
G01X5509Y4819D01*
G01X5481Y4811D01*
G01X5400Y4811D01*
G01X5596Y4955D02*
G01X5596Y4965D01*
G01X5605Y4984D01*
G01X5614Y4992D01*
G01X5632Y5001D01*
G01X5668Y5001D01*
G01X5686Y4992D01*
G01X5696Y4984D01*
G01X5705Y4965D01*
G01X5705Y4946D01*
G01X5696Y4928D01*
G01X5677Y4901D01*
G01X5586Y4811D01*
G01X5714Y4811D01*
G01X9400Y4951D02*
G01X9400Y4761D01*
G01X9400Y4951D02*
G01X9481Y4951D01*
G01X9509Y4942D01*
G01X9518Y4934D01*
G01X9527Y4915D01*
G01X9527Y4896D01*
G01X9518Y4878D01*
G01X9509Y4869D01*
G01X9481Y4861D01*
G01X9400Y4861D02*
G01X9481Y4861D01*
G01X9509Y4851D01*
G01X9518Y4842D01*
G01X9527Y4825D01*
G01X9527Y4796D01*
G01X9518Y4778D01*
G01X9509Y4769D01*
G01X9481Y4761D01*
G01X9400Y4761D01*
G01X9605Y4951D02*
G01X9705Y4951D01*
G01X9651Y4878D01*
G01X9677Y4878D01*
G01X9696Y4869D01*
G01X9705Y4861D01*
G01X9714Y4834D01*
G01X9714Y4815D01*
G01X9705Y4788D01*
G01X9686Y4769D01*
G01X9660Y4761D01*
G01X9632Y4761D01*
G01X9605Y4769D01*
G01X9596Y4778D01*
G01X9586Y4796D01*
G01X13400Y4951D02*
G01X13400Y4761D01*
G01X13400Y4951D02*
G01X13481Y4951D01*
G01X13509Y4942D01*
G01X13518Y4934D01*
G01X13527Y4915D01*
G01X13527Y4896D01*
G01X13518Y4878D01*
G01X13509Y4869D01*
G01X13481Y4861D01*
G01X13400Y4861D02*
G01X13481Y4861D01*
G01X13509Y4851D01*
G01X13518Y4842D01*
G01X13527Y4825D01*
G01X13527Y4796D01*
G01X13518Y4778D01*
G01X13509Y4769D01*
G01X13481Y4761D01*
G01X13400Y4761D01*
G01X13677Y4951D02*
G01X13586Y4825D01*
G01X13723Y4825D01*
G01X13677Y4951D02*
G01X13677Y4761D01*
G01X1676Y1725D02*
G01X1659Y1742D01*
G01X1632Y1751D01*
G01X1594Y1751D01*
G01X1567Y1742D01*
G01X1550Y1725D01*
G01X1550Y1705D01*
G01X1559Y1688D01*
G01X1567Y1678D01*
G01X1586Y1669D01*
G01X1640Y1651D01*
G01X1659Y1642D01*
G01X1667Y1634D01*
G01X1676Y1615D01*
G01X1676Y1588D01*
G01X1659Y1569D01*
G01X1632Y1561D01*
G01X1594Y1561D01*
G01X1567Y1569D01*
G01X1550Y1588D01*
G01X1919Y1669D02*
G01X1919Y1678D01*
G01X1909Y1688D01*
G01X1901Y1688D01*
G01X1892Y1678D01*
G01X1882Y1661D01*
G01X1865Y1615D01*
G01X1846Y1588D01*
G01X1828Y1569D01*
G01X1809Y1561D01*
G01X1773Y1561D01*
G01X1755Y1569D01*
G01X1746Y1578D01*
G01X1736Y1596D01*
G01X1736Y1615D01*
G01X1746Y1634D01*
G01X1755Y1642D01*
G01X1819Y1678D01*
G01X1828Y1688D01*
G01X1836Y1705D01*
G01X1836Y1725D01*
G01X1828Y1742D01*
G01X1809Y1751D01*
G01X1792Y1742D01*
G01X1782Y1725D01*
G01X1782Y1705D01*
G01X1792Y1678D01*
G01X1809Y1651D01*
G01X1855Y1588D01*
G01X1873Y1569D01*
G01X1892Y1561D01*
G01X1909Y1561D01*
G01X1919Y1569D01*
G01X1919Y1578D01*
G01X1978Y1751D02*
G01X1978Y1561D01*
G01X1978Y1751D02*
G01X2061Y1751D01*
G01X2088Y1742D01*
G01X2096Y1734D01*
G01X2105Y1715D01*
G01X2105Y1688D01*
G01X2096Y1669D01*
G01X2088Y1661D01*
G01X2061Y1651D01*
G01X1978Y1651D01*
G01X2165Y1642D02*
G01X2330Y1642D01*
G01X2390Y1715D02*
G01X2407Y1725D01*
G01X2434Y1751D01*
G01X2434Y1561D01*
G01X6400Y1565D02*
G01X6418Y1575D01*
G01X6444Y1601D01*
G01X6444Y1411D01*
G01X6505Y1601D02*
G01X6505Y1411D01*
G01X6632Y1601D02*
G01X6505Y1475D01*
G01X6551Y1519D02*
G01X6632Y1411D01*
G54D10*
G75*
G01X10960Y1846D02*
G02X11060Y1946I100J0D01*
G01*
G75*
G01X10960Y1146D02*
G03X11060Y1046I100J0D01*
G01*
G75*
G01X13360Y1046D02*
G03X13460Y1146I0J100D01*
G01*
G75*
G01X13360Y1946D02*
G02X13460Y1846I0J-100D01*
G01*
G75*
G01X9510Y6946D02*
G02X9610Y7046I100J0D01*
G01*
G75*
G01X9510Y6246D02*
G03X9610Y6146I100J0D01*
G01*
G75*
G01X11910Y6146D02*
G03X12010Y6246I0J100D01*
G01*
G75*
G01X11910Y7046D02*
G02X12010Y6946I0J-100D01*
G01*
G75*
G01X3310Y6846D02*
G02X3410Y6946I100J0D01*
G01*
G75*
G01X3310Y6146D02*
G03X3410Y6046I100J0D01*
G01*
G75*
G01X5710Y6046D02*
G03X5810Y6146I0J100D01*
G01*
G75*
G01X5710Y6946D02*
G02X5810Y6846I0J-100D01*
G01*
G75*
G01X5310Y1846D02*
G02X5410Y1946I100J0D01*
G01*
G75*
G01X5310Y1146D02*
G03X5410Y1046I100J0D01*
G01*
G75*
G01X7710Y1046D02*
G03X7810Y1146I0J100D01*
G01*
G75*
G01X7710Y1946D02*
G02X7810Y1846I0J-100D01*
G01*
M00*
M02*
