G04 Layer: TopLayer*
G04 EasyEDA v6.4.5, 2020-09-09T10:55:23+00:00*
G04 38f018f296924ca58de56823afda666e,b97ca10cbf7f413284ca0e80e24dcd20,10*
G04 Gerber Generator version 0.2*
G04 Scale: 100 percent, Rotated: No, Reflected: No *
G04 Dimensions in inches *
G04 leading zeros omitted , absolute positions ,2 integer and 4 decimal *
%FSLAX24Y24*%
%MOIN*%
G90*
G70D02*

%ADD11C,0.020000*%
%ADD12C,0.047700*%
%ADD13C,0.059370*%
%ADD14C,0.062992*%
%ADD15R,0.066000X0.062992*%
%ADD17C,0.070000*%

%LPD*%
G54D11*
G01X6993Y16692D02*
G01X10950Y12734D01*
G01X10950Y10900D01*
G01X8950Y8900D01*
G01X8950Y7900D01*
G01X8050Y7000D01*
G01X7914Y7000D01*
G01X7000Y1000D02*
G01X7000Y2900D01*
G01X7713Y3613D01*
G01X10009Y3613D01*
G01X9300Y16750D02*
G01X11750Y14300D01*
G01X11750Y9967D01*
G01X10158Y8375D01*
G01X2500Y1000D02*
G01X3150Y350D01*
G01X7650Y350D01*
G01X7650Y350D01*
G01X10009Y2825D01*
G01X10008Y1250D02*
G01X11100Y1250D01*
G01X11400Y1550D01*
G01X11400Y5650D01*
G01X10743Y6306D01*
G01X10058Y6306D01*
G01X7250Y8000D02*
G01X7600Y8000D01*
G01X8750Y9150D01*
G01X8750Y10200D01*
G01X8300Y10650D01*
G01X5952Y10650D01*
G01X4993Y9692D01*
G01X10400Y14750D02*
G01X11450Y13700D01*
G01X11450Y10500D01*
G01X10159Y9209D01*
G01X10159Y9155D01*
G01X10400Y11250D02*
G01X4551Y11250D01*
G01X2993Y9691D01*
G01X9300Y13250D02*
G01X5551Y13250D01*
G01X1993Y9691D01*
G01X6250Y7000D02*
G01X9364Y7000D01*
G01X10059Y6305D01*
G01X1196Y8803D02*
G01X553Y8803D01*
G01X350Y8600D01*
G01X350Y7300D01*
G01X2124Y5525D01*
G01X10058Y5525D01*
G01X6250Y8000D02*
G01X6250Y7000D01*
G01X6993Y9691D02*
G01X6993Y8743D01*
G01X6250Y8000D01*
G01X5250Y8000D02*
G01X4700Y8000D01*
G01X4050Y8650D01*
G01X4050Y9635D01*
G01X3993Y9691D01*
G01X2000Y8000D02*
G01X993Y9006D01*
G01X993Y9691D01*
G01X1000Y8000D02*
G01X2000Y7000D01*
G01X6250Y7000D01*
G54D12*
G01X9300Y13250D03*
G01X9300Y16750D03*
G01X10400Y11250D03*
G01X10400Y14750D03*
G54D13*
G01X7000Y1000D03*
G01X6000Y1000D03*
G01X1500Y1000D03*
G01X2500Y1000D03*
G01X1000Y8000D03*
G01X2000Y8000D03*
G01X7250Y8000D03*
G01X6250Y8000D03*
G01X5250Y8000D03*
G54D14*
G01X10059Y6305D03*
G54D15*
G01X10058Y5525D03*
G54D14*
G01X10059Y9155D03*
G54D15*
G01X10058Y8375D03*
G36*
G01X643Y10041D02*
G01X1343Y10041D01*
G01X1343Y9341D01*
G01X643Y9341D01*
G01X643Y10041D01*
G37*
G54D17*
G01X1993Y9691D03*
G01X2993Y9691D03*
G01X3993Y9691D03*
G01X4993Y9691D03*
G01X5993Y9691D03*
G01X6993Y9691D03*
G01X7993Y9691D03*
G01X993Y16691D03*
G01X1993Y16691D03*
G01X2993Y16691D03*
G01X3993Y16691D03*
G01X4993Y16691D03*
G01X5993Y16691D03*
G01X6993Y16691D03*
G01X7993Y16691D03*
G54D14*
G01X10059Y2825D03*
G01X10059Y2038D03*
G54D15*
G01X10058Y1250D03*
G54D14*
G01X10059Y3613D03*
M00*
M02*
