G04 Layer: BottomSolderMaskLayer*
G04 EasyEDA v6.4.5, 2020-09-09T10:55:23+00:00*
G04 38f018f296924ca58de56823afda666e,b97ca10cbf7f413284ca0e80e24dcd20,10*
G04 Gerber Generator version 0.2*
G04 Scale: 100 percent, Rotated: No, Reflected: No *
G04 Dimensions in inches *
G04 leading zeros omitted , absolute positions ,2 integer and 4 decimal *
%FSLAX24Y24*%
%MOIN*%
G90*
G70D02*

%ADD21C,0.055700*%
%ADD22C,0.067370*%
%ADD23C,0.070992*%
%ADD26C,0.078000*%

%LPD*%
G54D21*
G01X9300Y13250D03*
G01X9300Y16750D03*
G01X10400Y11250D03*
G01X10400Y14750D03*
G54D22*
G01X7000Y1000D03*
G01X6000Y1000D03*
G01X1500Y1000D03*
G01X2500Y1000D03*
G01X1000Y8000D03*
G01X2000Y8000D03*
G01X7250Y8000D03*
G01X6250Y8000D03*
G01X5250Y8000D03*
G54D23*
G01X10059Y6305D03*
G36*
G01X9688Y5169D02*
G01X9688Y5880D01*
G01X10427Y5880D01*
G01X10427Y5169D01*
G01X9688Y5169D01*
G37*
G01X10059Y9155D03*
G36*
G01X9688Y8019D02*
G01X9688Y8730D01*
G01X10427Y8730D01*
G01X10427Y8019D01*
G01X9688Y8019D01*
G37*
G36*
G01X603Y9301D02*
G01X603Y10082D01*
G01X1382Y10082D01*
G01X1382Y9301D01*
G01X603Y9301D01*
G37*
G54D26*
G01X1993Y9691D03*
G01X2993Y9691D03*
G01X3993Y9691D03*
G01X4993Y9691D03*
G01X5993Y9691D03*
G01X6993Y9691D03*
G01X7993Y9691D03*
G01X993Y16691D03*
G01X1993Y16691D03*
G01X2993Y16691D03*
G01X3993Y16691D03*
G01X4993Y16691D03*
G01X5993Y16691D03*
G01X6993Y16691D03*
G01X7993Y16691D03*
G54D23*
G01X10059Y2825D03*
G01X10059Y2038D03*
G36*
G01X9689Y894D02*
G01X9689Y1605D01*
G01X10428Y1605D01*
G01X10428Y894D01*
G01X9689Y894D01*
G37*
G01X10059Y3613D03*
M00*
M02*
