;Layer: Drill PTH
;EasyEDA v6.4.5, 2020-09-09T10:55:23+00:00
;38f018f296924ca58de56823afda666e,b97ca10cbf7f413284ca0e80e24dcd20,10
;Gerber Generator version 0.2
M48
INCH,LZ,00.0000
;Holesize 1 = 0.032 INCH
T01C0.032
;Holesize 2 = 0.032 INCH
T02C0.032
;Holesize 3 = 0.036 INCH
T03C0.036
;Holesize 4 = 0.039 INCH
T04C0.039
%
G05
G90
T01
X+010059Y+006305
X+010058Y+005525
X+010059Y+009155
X+010058Y+008375
X+010059Y+002825
X+010059Y+002038
X+010058Y+001250
X+010059Y+003613
T02
X+009300Y+013250
X+009300Y+016750
X+010400Y+011250
X+010400Y+014750
T03
X+000993Y+009691
X+001993Y+009691
X+002993Y+009691
X+003993Y+009691
X+004993Y+009691
X+005993Y+009691
X+006993Y+009691
X+007993Y+009691
X+000993Y+016691
X+001993Y+016691
X+002993Y+016691
X+003993Y+016691
X+004993Y+016691
X+005993Y+016691
X+006993Y+016691
X+007993Y+016691
T04
X+007000Y+001000G85X+006999Y+001000
X+006000Y+001000G85X+005999Y+001000
X+001500Y+001000G85X+001499Y+001000
X+002500Y+001000G85X+002499Y+001000
X+001000Y+008000G85X+000999Y+008000
X+002000Y+008000G85X+001999Y+008000
X+007250Y+008000G85X+007249Y+008000
X+006250Y+008000G85X+006249Y+008000
X+005250Y+008000G85X+005249Y+008000
M30
