G04 Layer: TopSilkLayer*
G04 EasyEDA v6.4.5, 2020-09-09T10:55:23+00:00*
G04 38f018f296924ca58de56823afda666e,b97ca10cbf7f413284ca0e80e24dcd20,10*
G04 Gerber Generator version 0.2*
G04 Scale: 100 percent, Rotated: No, Reflected: No *
G04 Dimensions in inches *
G04 leading zeros omitted , absolute positions ,2 integer and 4 decimal *
%FSLAX24Y24*%
%MOIN*%
G90*
G70D02*

%ADD10C,0.010000*%
%ADD18C,0.005000*%
%ADD19C,0.006000*%
%ADD20C,0.004000*%

%LPD*%
G54D10*
G01X9700Y13650D02*
G01X9300Y13650D01*
G01X8900Y13650D01*
G01X8800Y13750D02*
G01X8800Y13950D01*
G01X8900Y14050D01*
G01X8900Y15950D01*
G01X8800Y16050D01*
G01X8800Y16250D01*
G01X9800Y13750D02*
G01X9800Y13950D01*
G01X9700Y14050D01*
G01X9700Y15950D01*
G01X9800Y16050D01*
G01X9800Y16250D01*
G01X9700Y16350D02*
G01X9300Y16350D01*
G01X8900Y16350D01*
G01X10800Y11650D02*
G01X10400Y11650D01*
G01X10000Y11650D01*
G01X9900Y11750D02*
G01X9900Y11950D01*
G01X10000Y12050D01*
G01X10000Y13950D01*
G01X9900Y14050D01*
G01X9900Y14250D01*
G01X10900Y11750D02*
G01X10900Y11950D01*
G01X10800Y12050D01*
G01X10800Y13950D01*
G01X10900Y14050D01*
G01X10900Y14250D01*
G01X10800Y14350D02*
G01X10400Y14350D01*
G01X10000Y14350D01*
G54D18*
G01X8050Y400D02*
G01X450Y400D01*
G01X450Y8600D01*
G01X8050Y8600D01*
G01X8050Y400D01*
G01X6850Y1750D02*
G01X7150Y1750D01*
G01X6150Y1750D02*
G01X5850Y1750D01*
G01X2650Y1750D02*
G01X2350Y1750D01*
G01X1650Y1750D02*
G01X1350Y1750D01*
G01X6000Y1600D02*
G01X6000Y1900D01*
G01X2500Y1600D02*
G01X2500Y1900D01*
G01X6250Y7250D02*
G01X6250Y7500D01*
G01X6400Y7500D02*
G01X6100Y7500D01*
G54D10*
G01X11239Y4777D02*
G01X11239Y7100D01*
G01X10216Y7100D01*
G01X11239Y6351D02*
G01X11239Y4737D01*
G01X10255Y4737D01*
G01X10216Y6903D02*
G01X11003Y6903D01*
G01X11003Y4934D01*
G01X10255Y4934D01*
G01X9586Y5918D02*
G01X9350Y5918D01*
G01X9822Y7100D02*
G01X9822Y6903D01*
G01X10216Y7100D02*
G01X10216Y6903D01*
G01X9861Y4934D02*
G01X9861Y4737D01*
G01X9822Y6903D02*
G01X9350Y6903D01*
G01X9350Y6509D02*
G01X9586Y6509D01*
G01X9350Y5328D02*
G01X9586Y5328D01*
G01X9586Y6509D02*
G01X9586Y5918D01*
G01X9350Y6509D02*
G01X9350Y5918D01*
G01X9586Y5328D02*
G01X9586Y5918D01*
G01X9350Y5918D01*
G01X9350Y5328D02*
G01X9350Y5918D01*
G01X9861Y4934D02*
G01X9350Y4934D01*
G01X9350Y4737D01*
G01X9861Y4737D01*
G01X9822Y7100D02*
G01X9350Y7100D01*
G01X9350Y6903D01*
G01X9350Y5918D02*
G01X9350Y5131D01*
G01X9350Y6509D02*
G01X9350Y6903D01*
G01X9586Y6509D02*
G01X9586Y6903D01*
G01X9822Y6903D02*
G01X10216Y6903D01*
G01X10216Y7100D02*
G01X9822Y7100D01*
G01X9586Y5328D02*
G01X9586Y4934D01*
G01X9350Y5328D02*
G01X9350Y4934D01*
G01X9861Y4934D02*
G01X10255Y4934D01*
G01X10255Y4737D02*
G01X9861Y4737D01*
G01X10294Y4934D02*
G01X10294Y4737D01*
G01X11239Y7627D02*
G01X11239Y9950D01*
G01X10216Y9950D01*
G01X11239Y9201D02*
G01X11239Y7587D01*
G01X10255Y7587D01*
G01X10216Y9753D02*
G01X11003Y9753D01*
G01X11003Y7784D01*
G01X10255Y7784D01*
G01X9586Y8768D02*
G01X9350Y8768D01*
G01X9822Y9950D02*
G01X9822Y9753D01*
G01X10216Y9950D02*
G01X10216Y9753D01*
G01X9861Y7784D02*
G01X9861Y7587D01*
G01X9822Y9753D02*
G01X9350Y9753D01*
G01X9350Y9359D02*
G01X9586Y9359D01*
G01X9350Y8178D02*
G01X9586Y8178D01*
G01X9586Y9359D02*
G01X9586Y8768D01*
G01X9350Y9359D02*
G01X9350Y8768D01*
G01X9586Y8178D02*
G01X9586Y8768D01*
G01X9350Y8768D01*
G01X9350Y8178D02*
G01X9350Y8768D01*
G01X9861Y7784D02*
G01X9350Y7784D01*
G01X9350Y7587D01*
G01X9861Y7587D01*
G01X9822Y9950D02*
G01X9350Y9950D01*
G01X9350Y9753D01*
G01X9350Y8768D02*
G01X9350Y7981D01*
G01X9350Y9359D02*
G01X9350Y9753D01*
G01X9586Y9359D02*
G01X9586Y9753D01*
G01X9822Y9753D02*
G01X10216Y9753D01*
G01X10216Y9950D02*
G01X9822Y9950D01*
G01X9586Y8178D02*
G01X9586Y7784D01*
G01X9350Y8178D02*
G01X9350Y7784D01*
G01X9861Y7784D02*
G01X10255Y7784D01*
G01X10255Y7587D02*
G01X9861Y7587D01*
G01X10294Y7784D02*
G01X10294Y7587D01*
G01X393Y13780D02*
G01X393Y17324D01*
G01X8562Y17324D01*
G01X8562Y9154D01*
G01X393Y9154D01*
G01X393Y12402D01*
G01X11239Y1289D02*
G01X11239Y4400D01*
G01X10216Y4400D01*
G01X11239Y1289D02*
G01X11239Y463D01*
G01X10255Y463D01*
G01X10216Y4203D02*
G01X11003Y4203D01*
G01X11003Y659D01*
G01X10255Y659D01*
G01X9586Y3218D02*
G01X9350Y3218D01*
G01X9822Y4400D02*
G01X9822Y4203D01*
G01X10216Y4400D02*
G01X10216Y4203D01*
G01X9861Y659D02*
G01X9861Y463D01*
G01X9822Y4203D02*
G01X9350Y4203D01*
G01X9350Y3809D02*
G01X9586Y3809D01*
G01X9350Y1053D02*
G01X9586Y1053D01*
G01X9586Y3809D02*
G01X9586Y3218D01*
G01X9350Y3809D02*
G01X9350Y3218D01*
G01X9586Y1053D02*
G01X9586Y1644D01*
G01X9350Y1644D01*
G01X9350Y1053D02*
G01X9350Y1644D01*
G01X9861Y659D02*
G01X9350Y659D01*
G01X9350Y463D01*
G01X9861Y463D01*
G01X9822Y4400D02*
G01X9350Y4400D01*
G01X9350Y4203D01*
G01X9350Y3218D02*
G01X9350Y1644D01*
G01X9350Y3809D02*
G01X9350Y4203D01*
G01X9586Y3809D02*
G01X9586Y4203D01*
G01X9822Y4203D02*
G01X10255Y4203D01*
G01X10216Y4400D02*
G01X9822Y4400D01*
G01X9586Y1053D02*
G01X9586Y659D01*
G01X9350Y1053D02*
G01X9350Y659D01*
G01X9861Y659D02*
G01X10255Y659D01*
G01X10255Y463D02*
G01X9861Y463D01*
G01X10294Y659D02*
G01X10294Y463D01*
G54D19*
G01X10652Y3636D02*
G01X10460Y3636D01*
G01X10652Y3700D02*
G01X10652Y3573D01*
G01X10702Y2000D02*
G01X10510Y2000D01*
G01X10702Y2000D02*
G01X10702Y1917D01*
G01X10693Y1890D01*
G01X10684Y1882D01*
G01X10664Y1873D01*
G01X10647Y1873D01*
G01X10628Y1882D01*
G01X10619Y1890D01*
G01X10610Y1917D01*
G01X10610Y2000D01*
G01X10610Y1936D02*
G01X10510Y1873D01*
G01X10656Y1803D02*
G01X10664Y1803D01*
G01X10684Y1794D01*
G01X10693Y1784D01*
G01X10702Y1767D01*
G01X10702Y1730D01*
G01X10693Y1713D01*
G01X10684Y1703D01*
G01X10664Y1694D01*
G01X10647Y1694D01*
G01X10628Y1703D01*
G01X10602Y1721D01*
G01X10510Y1813D01*
G01X10510Y1684D01*
G01X10702Y2950D02*
G01X10510Y2950D01*
G01X10702Y2950D02*
G01X10702Y2867D01*
G01X10693Y2840D01*
G01X10684Y2832D01*
G01X10664Y2823D01*
G01X10647Y2823D01*
G01X10628Y2832D01*
G01X10619Y2840D01*
G01X10610Y2867D01*
G01X10610Y2950D01*
G01X10610Y2886D02*
G01X10510Y2823D01*
G01X10664Y2763D02*
G01X10675Y2744D01*
G01X10702Y2717D01*
G01X10510Y2717D01*
G01X10675Y1123D02*
G01X10693Y1140D01*
G01X10702Y1167D01*
G01X10702Y1205D01*
G01X10693Y1232D01*
G01X10675Y1250D01*
G01X10656Y1250D01*
G01X10638Y1240D01*
G01X10628Y1232D01*
G01X10619Y1213D01*
G01X10602Y1159D01*
G01X10593Y1140D01*
G01X10584Y1132D01*
G01X10564Y1123D01*
G01X10538Y1123D01*
G01X10519Y1140D01*
G01X10510Y1167D01*
G01X10510Y1205D01*
G01X10519Y1232D01*
G01X10538Y1250D01*
G01X10593Y6450D02*
G01X10593Y6286D01*
G01X10725Y5517D02*
G01X10560Y5517D01*
G01X10643Y5600D02*
G01X10643Y5436D01*
G01X9502Y15100D02*
G01X9264Y15100D01*
G01X9502Y15100D02*
G01X9502Y14998D01*
G01X9490Y14963D01*
G01X9480Y14951D01*
G01X9456Y14940D01*
G01X9434Y14940D01*
G01X9410Y14951D01*
G01X9400Y14963D01*
G01X9389Y14998D01*
G01X9389Y15100D01*
G01X9389Y15019D02*
G01X9264Y14940D01*
G01X9456Y14865D02*
G01X9468Y14842D01*
G01X9502Y14809D01*
G01X9264Y14809D01*
G01X10602Y12950D02*
G01X10364Y12950D01*
G01X10602Y12950D02*
G01X10602Y12848D01*
G01X10590Y12813D01*
G01X10580Y12801D01*
G01X10556Y12790D01*
G01X10534Y12790D01*
G01X10510Y12801D01*
G01X10500Y12813D01*
G01X10489Y12848D01*
G01X10489Y12950D01*
G01X10489Y12869D02*
G01X10364Y12790D01*
G01X10544Y12705D02*
G01X10556Y12705D01*
G01X10580Y12692D01*
G01X10590Y12682D01*
G01X10602Y12659D01*
G01X10602Y12613D01*
G01X10590Y12590D01*
G01X10580Y12580D01*
G01X10556Y12567D01*
G01X10534Y12567D01*
G01X10510Y12580D01*
G01X10477Y12601D01*
G01X10364Y12715D01*
G01X10364Y12557D01*
G01X2451Y4700D02*
G01X2213Y4700D01*
G01X2451Y4700D02*
G01X2451Y4598D01*
G01X2440Y4563D01*
G01X2430Y4551D01*
G01X2407Y4540D01*
G01X2373Y4540D01*
G01X2350Y4551D01*
G01X2338Y4563D01*
G01X2326Y4598D01*
G01X2326Y4700D01*
G01X2451Y4375D02*
G01X2213Y4465D01*
G01X2451Y4375D02*
G01X2213Y4284D01*
G01X2292Y4432D02*
G01X2292Y4317D01*
G01X2451Y4209D02*
G01X2213Y4209D01*
G01X2451Y4209D02*
G01X2213Y4117D01*
G01X2451Y4026D02*
G01X2213Y4117D01*
G01X2451Y4026D02*
G01X2213Y4026D01*
G01X2451Y3894D02*
G01X2440Y3930D01*
G01X2417Y3940D01*
G01X2394Y3940D01*
G01X2373Y3930D01*
G01X2361Y3907D01*
G01X2350Y3861D01*
G01X2338Y3826D01*
G01X2315Y3805D01*
G01X2292Y3792D01*
G01X2259Y3792D01*
G01X2236Y3805D01*
G01X2225Y3815D01*
G01X2213Y3850D01*
G01X2213Y3894D01*
G01X2225Y3930D01*
G01X2236Y3940D01*
G01X2259Y3951D01*
G01X2292Y3951D01*
G01X2315Y3940D01*
G01X2338Y3917D01*
G01X2350Y3884D01*
G01X2361Y3838D01*
G01X2373Y3815D01*
G01X2394Y3805D01*
G01X2417Y3805D01*
G01X2440Y3815D01*
G01X2451Y3850D01*
G01X2451Y3894D01*
G01X2451Y3605D02*
G01X2292Y3717D01*
G01X2292Y3548D01*
G01X2451Y3605D02*
G01X2213Y3605D01*
G01X2451Y3405D02*
G01X2440Y3438D01*
G01X2407Y3461D01*
G01X2350Y3473D01*
G01X2315Y3473D01*
G01X2259Y3461D01*
G01X2225Y3438D01*
G01X2213Y3405D01*
G01X2213Y3382D01*
G01X2225Y3348D01*
G01X2259Y3325D01*
G01X2315Y3313D01*
G01X2350Y3313D01*
G01X2407Y3325D01*
G01X2440Y3348D01*
G01X2451Y3382D01*
G01X2451Y3405D01*
G01X2451Y3215D02*
G01X2451Y3090D01*
G01X2361Y3159D01*
G01X2361Y3125D01*
G01X2350Y3101D01*
G01X2338Y3090D01*
G01X2305Y3080D01*
G01X2282Y3080D01*
G01X2248Y3090D01*
G01X2225Y3113D01*
G01X2213Y3148D01*
G01X2213Y3182D01*
G01X2225Y3215D01*
G01X2236Y3226D01*
G01X2259Y3238D01*
G54D20*
G01X6700Y6244D02*
G01X6700Y6723D01*
G01X6550Y6244D02*
G01X6550Y6723D01*
G01X6550Y6244D02*
G01X6231Y6723D01*
G01X6231Y6244D02*
G01X6231Y6723D01*
G01X4788Y1244D02*
G01X4834Y1267D01*
G01X4880Y1313D01*
G01X4902Y1359D01*
G01X4925Y1426D01*
G01X4925Y1540D01*
G01X4902Y1609D01*
G01X4880Y1655D01*
G01X4834Y1700D01*
G01X4788Y1723D01*
G01X4698Y1723D01*
G01X4651Y1700D01*
G01X4607Y1655D01*
G01X4584Y1609D01*
G01X4561Y1540D01*
G01X4561Y1426D01*
G01X4584Y1359D01*
G01X4607Y1313D01*
G01X4651Y1267D01*
G01X4698Y1244D01*
G01X4788Y1244D01*
G01X4411Y1244D02*
G01X4411Y1586D01*
G01X4388Y1655D01*
G01X4342Y1700D01*
G01X4275Y1723D01*
G01X4230Y1723D01*
G01X4161Y1700D01*
G01X4115Y1655D01*
G01X4092Y1586D01*
G01X4092Y1244D01*
G01X3784Y1244D02*
G01X3784Y1723D01*
G01X3942Y1244D02*
G01X3625Y1244D01*
G01X7475Y6744D02*
G01X7475Y7223D01*
G01X7475Y7223D02*
G01X7202Y7223D01*
G01X5475Y6744D02*
G01X5475Y7223D01*
G01X5475Y6744D02*
G01X5269Y6744D01*
G01X5202Y6767D01*
G01X5180Y6790D01*
G01X5156Y6836D01*
G01X5156Y6882D01*
G01X5180Y6926D01*
G01X5202Y6950D01*
G01X5269Y6973D01*
G01X5475Y6973D01*
G01X5315Y6973D02*
G01X5156Y7223D01*
G01X6725Y1244D02*
G01X6725Y1723D01*
G01X6725Y1723D02*
G01X6452Y1723D01*
G01X2225Y1244D02*
G01X2225Y1723D01*
G01X2225Y1244D02*
G01X2019Y1244D01*
G01X1951Y1267D01*
G01X1930Y1290D01*
G01X1907Y1336D01*
G01X1907Y1382D01*
G01X1930Y1426D01*
G01X1951Y1450D01*
G01X2019Y1473D01*
G01X2225Y1473D01*
G01X2065Y1473D02*
G01X1907Y1723D01*
G01X2436Y7294D02*
G01X2026Y7294D01*
G01X2232Y7500D02*
G01X2232Y7090D01*
G01X2505Y6667D02*
G01X2505Y6894D01*
G01X2300Y6917D01*
G01X2323Y6894D01*
G01X2344Y6826D01*
G01X2344Y6759D01*
G01X2323Y6690D01*
G01X2276Y6644D01*
G01X2209Y6623D01*
G01X2163Y6623D01*
G01X2094Y6644D01*
G01X2050Y6690D01*
G01X2026Y6759D01*
G01X2026Y6826D01*
G01X2050Y6894D01*
G01X2073Y6917D01*
G01X2117Y6940D01*
G01X2505Y6473D02*
G01X2026Y6290D01*
G01X2505Y6109D02*
G01X2026Y6290D01*
G01X1390Y7159D02*
G01X1436Y7182D01*
G01X1482Y7226D01*
G01X1505Y7273D01*
G01X1505Y7363D01*
G01X1482Y7409D01*
G01X1436Y7455D01*
G01X1390Y7476D01*
G01X1323Y7500D01*
G01X1209Y7500D01*
G01X1140Y7476D01*
G01X1094Y7455D01*
G01X1050Y7409D01*
G01X1026Y7363D01*
G01X1026Y7273D01*
G01X1050Y7226D01*
G01X1094Y7182D01*
G01X1140Y7159D01*
G01X1209Y7159D01*
G01X1209Y7273D02*
G01X1209Y7159D01*
G01X1505Y7009D02*
G01X1026Y7009D01*
G01X1505Y7009D02*
G01X1026Y6690D01*
G01X1505Y6690D02*
G01X1026Y6690D01*
G01X1505Y6540D02*
G01X1026Y6540D01*
G01X1505Y6540D02*
G01X1505Y6382D01*
G01X1482Y6313D01*
G01X1436Y6267D01*
G01X1390Y6244D01*
G01X1323Y6223D01*
G01X1209Y6223D01*
G01X1140Y6244D01*
G01X1094Y6267D01*
G01X1050Y6313D01*
G01X1026Y6382D01*
G01X1026Y6540D01*
G54D19*
G01X11568Y6340D02*
G01X11590Y6363D01*
G01X11602Y6398D01*
G01X11602Y6442D01*
G01X11590Y6476D01*
G01X11568Y6500D01*
G01X11544Y6500D01*
G01X11522Y6488D01*
G01X11510Y6476D01*
G01X11500Y6455D01*
G01X11477Y6386D01*
G01X11465Y6363D01*
G01X11455Y6351D01*
G01X11431Y6340D01*
G01X11397Y6340D01*
G01X11375Y6363D01*
G01X11364Y6398D01*
G01X11364Y6442D01*
G01X11375Y6476D01*
G01X11397Y6500D01*
G01X11602Y6265D02*
G01X11431Y6265D01*
G01X11397Y6255D01*
G01X11375Y6232D01*
G01X11364Y6198D01*
G01X11364Y6175D01*
G01X11375Y6140D01*
G01X11397Y6117D01*
G01X11431Y6107D01*
G01X11602Y6107D01*
G01X11602Y6032D02*
G01X11364Y6032D01*
G01X11602Y6032D02*
G01X11602Y5930D01*
G01X11590Y5894D01*
G01X11580Y5884D01*
G01X11556Y5873D01*
G01X11522Y5873D01*
G01X11500Y5884D01*
G01X11489Y5894D01*
G01X11477Y5930D01*
G01X11477Y6032D01*
G01X11602Y5798D02*
G01X11364Y5798D01*
G01X11602Y5798D02*
G01X11602Y5694D01*
G01X11590Y5661D01*
G01X11580Y5650D01*
G01X11556Y5638D01*
G01X11522Y5638D01*
G01X11500Y5650D01*
G01X11489Y5661D01*
G01X11477Y5694D01*
G01X11477Y5798D01*
G01X11602Y5563D02*
G01X11364Y5563D01*
G01X11364Y5563D02*
G01X11364Y5426D01*
G01X11602Y5351D02*
G01X11489Y5261D01*
G01X11364Y5261D01*
G01X11602Y5169D02*
G01X11489Y5261D01*
G01X11602Y9050D02*
G01X11364Y9050D01*
G01X11602Y9050D02*
G01X11602Y8948D01*
G01X11590Y8913D01*
G01X11580Y8901D01*
G01X11556Y8890D01*
G01X11522Y8890D01*
G01X11500Y8901D01*
G01X11489Y8913D01*
G01X11477Y8948D01*
G01X11477Y9050D01*
G01X11602Y8815D02*
G01X11364Y8815D01*
G01X11602Y8740D02*
G01X11364Y8740D01*
G01X11602Y8740D02*
G01X11364Y8582D01*
G01X11602Y8582D02*
G01X11364Y8582D01*
G01X11568Y8348D02*
G01X11590Y8369D01*
G01X11602Y8405D01*
G01X11602Y8450D01*
G01X11590Y8484D01*
G01X11568Y8507D01*
G01X11544Y8507D01*
G01X11522Y8494D01*
G01X11510Y8484D01*
G01X11500Y8461D01*
G01X11477Y8392D01*
G01X11465Y8369D01*
G01X11455Y8359D01*
G01X11431Y8348D01*
G01X11397Y8348D01*
G01X11375Y8369D01*
G01X11364Y8405D01*
G01X11364Y8450D01*
G01X11375Y8484D01*
G01X11397Y8507D01*
G01X2401Y14400D02*
G01X2163Y14400D01*
G01X2401Y14400D02*
G01X2401Y14319D01*
G01X2390Y14286D01*
G01X2367Y14263D01*
G01X2344Y14251D01*
G01X2311Y14240D01*
G01X2255Y14240D01*
G01X2219Y14251D01*
G01X2198Y14263D01*
G01X2175Y14286D01*
G01X2163Y14319D01*
G01X2163Y14400D01*
G01X2401Y14165D02*
G01X2163Y14165D01*
G01X2401Y14165D02*
G01X2401Y14017D01*
G01X2288Y14165D02*
G01X2288Y14075D01*
G01X2401Y13942D02*
G01X2163Y13942D01*
G01X2401Y13942D02*
G01X2401Y13840D01*
G01X2390Y13807D01*
G01X2380Y13794D01*
G01X2357Y13784D01*
G01X2323Y13784D01*
G01X2300Y13794D01*
G01X2288Y13807D01*
G01X2276Y13840D01*
G01X2276Y13942D01*
G01X2401Y13709D02*
G01X2163Y13709D01*
G01X2163Y13709D02*
G01X2163Y13573D01*
G01X2401Y13407D02*
G01X2163Y13498D01*
G01X2401Y13407D02*
G01X2163Y13315D01*
G01X2242Y13463D02*
G01X2242Y13350D01*
G01X2401Y13240D02*
G01X2288Y13150D01*
G01X2163Y13150D01*
G01X2401Y13059D02*
G01X2288Y13150D01*
G01X2401Y12984D02*
G01X2163Y12984D01*
G01X2401Y12984D02*
G01X2401Y12836D01*
G01X2288Y12984D02*
G01X2288Y12892D01*
G01X2163Y12984D02*
G01X2163Y12836D01*
G01X2401Y12761D02*
G01X2163Y12761D01*
G01X2401Y12761D02*
G01X2401Y12659D01*
G01X2390Y12625D01*
G01X2380Y12613D01*
G01X2357Y12601D01*
G01X2334Y12601D01*
G01X2311Y12613D01*
G01X2300Y12625D01*
G01X2288Y12659D01*
G01X2288Y12761D01*
G01X2288Y12682D02*
G01X2163Y12601D01*
G01X11702Y3069D02*
G01X11464Y3069D01*
G01X11702Y3150D02*
G01X11702Y2990D01*
G01X11702Y2915D02*
G01X11464Y2915D01*
G01X11702Y2915D02*
G01X11702Y2813D01*
G01X11690Y2780D01*
G01X11680Y2767D01*
G01X11656Y2757D01*
G01X11634Y2757D01*
G01X11610Y2767D01*
G01X11600Y2780D01*
G01X11589Y2813D01*
G01X11589Y2915D01*
G01X11589Y2836D02*
G01X11464Y2757D01*
G01X11702Y2682D02*
G01X11464Y2682D01*
G01X11702Y2682D02*
G01X11702Y2580D01*
G01X11690Y2544D01*
G01X11680Y2534D01*
G01X11656Y2523D01*
G01X11634Y2523D01*
G01X11610Y2534D01*
G01X11600Y2544D01*
G01X11589Y2580D01*
G01X11589Y2682D01*
G01X11589Y2601D02*
G01X11464Y2523D01*
G01X11668Y2288D02*
G01X11690Y2311D01*
G01X11702Y2344D01*
G01X11702Y2390D01*
G01X11690Y2425D01*
G01X11668Y2448D01*
G01X11644Y2448D01*
G01X11622Y2436D01*
G01X11610Y2425D01*
G01X11600Y2401D01*
G01X11577Y2334D01*
G01X11565Y2311D01*
G01X11555Y2300D01*
G01X11531Y2288D01*
G01X11497Y2288D01*
G01X11475Y2311D01*
G01X11464Y2344D01*
G01X11464Y2390D01*
G01X11475Y2425D01*
G01X11497Y2448D01*
G54D10*
G75*
G01X8900Y13650D02*
G02X8800Y13750I0J100D01*
G01*
G75*
G01X9700Y13650D02*
G03X9800Y13750I0J100D01*
G01*
G75*
G01X9800Y16250D02*
G03X9700Y16350I-100J0D01*
G01*
G75*
G01X8800Y16250D02*
G02X8900Y16350I100J0D01*
G01*
G75*
G01X10000Y11650D02*
G02X9900Y11750I0J100D01*
G01*
G75*
G01X10800Y11650D02*
G03X10900Y11750I0J100D01*
G01*
G75*
G01X10900Y14250D02*
G03X10800Y14350I-100J0D01*
G01*
G75*
G01X9900Y14250D02*
G02X10000Y14350I100J0D01*
G01*
G75*
G01X393Y13781D02*
G02X393Y12403I0J-689D01*
G01*
M00*
M02*
