G04 Layer: BottomLayer*
G04 EasyEDA v6.4.5, 2020-09-09T10:55:23+00:00*
G04 38f018f296924ca58de56823afda666e,b97ca10cbf7f413284ca0e80e24dcd20,10*
G04 Gerber Generator version 0.2*
G04 Scale: 100 percent, Rotated: No, Reflected: No *
G04 Dimensions in inches *
G04 leading zeros omitted , absolute positions ,2 integer and 4 decimal *
%FSLAX24Y24*%
%MOIN*%
G90*
G70D02*

%ADD12C,0.047700*%
%ADD13C,0.059370*%
%ADD14C,0.062992*%
%ADD15R,0.066000X0.062992*%
%ADD17C,0.070000*%

%LPD*%
G54D12*
G01X9300Y13250D03*
G01X9300Y16750D03*
G01X10400Y11250D03*
G01X10400Y14750D03*
G54D13*
G01X7000Y1000D03*
G01X6000Y1000D03*
G01X1500Y1000D03*
G01X2500Y1000D03*
G01X1000Y8000D03*
G01X2000Y8000D03*
G01X7250Y8000D03*
G01X6250Y8000D03*
G01X5250Y8000D03*
G54D14*
G01X10059Y6305D03*
G54D15*
G01X10058Y5525D03*
G54D14*
G01X10059Y9155D03*
G54D15*
G01X10058Y8375D03*
G36*
G01X643Y10041D02*
G01X1343Y10041D01*
G01X1343Y9341D01*
G01X643Y9341D01*
G01X643Y10041D01*
G37*
G54D17*
G01X1993Y9691D03*
G01X2993Y9691D03*
G01X3993Y9691D03*
G01X4993Y9691D03*
G01X5993Y9691D03*
G01X6993Y9691D03*
G01X7993Y9691D03*
G01X993Y16691D03*
G01X1993Y16691D03*
G01X2993Y16691D03*
G01X3993Y16691D03*
G01X4993Y16691D03*
G01X5993Y16691D03*
G01X6993Y16691D03*
G01X7993Y16691D03*
G54D14*
G01X10059Y2825D03*
G01X10059Y2038D03*
G54D15*
G01X10058Y1250D03*
G54D14*
G01X10059Y3613D03*
M00*
M02*
